<svg xmlns="http://www.w3.org/2000/svg" xmlns:xlink="http://www.w3.org/1999/xlink" id="exportSvg" width="710" height="442"><defs/><rect width="710" height="442" transform="translate(0, 0)" fill="rgb(37, 37, 37)" style="fill: rgb(37, 37, 37);"/><g><g><g id="__svelte-dw-svg" clip-path="url(#rect-mask-Q8pvD1ld6DwkzkJQnitiN)"><clipPath id="rect-mask-Q8pvD1ld6DwkzkJQnitiN"><rect x="0" y="0" width="710" height="442.265625"/></clipPath><g id="container-svg container-body-svg datawrapper-wrw0t-1dudiof-svg"><g id="container-svg container-bodyTop-svg datawrapper-wrw0t-lmtz6e-svg"><g id="container-svg container-bodyCenter-svg datawrapper-wrw0t-1fgvipr-svg"><g id="container-svg container-header-svg datawrapper-wrw0t-1rz7hyu-svg"><text transform="translate(0, 0)"><tspan fill="rgb(218,218,218)" x="0" y="23" style="font-family: Knowledge; font-weight: 700; font-stretch: 100%; font-size: 21px;">Brent crude futures crossed $100 per barrel after almost two months</tspan></text><text transform="translate(0, 28.875)"><tspan fill="rgb(218,218,218)" x="0" y="19" style="font-family: Knowledge; font-weight: 300; font-stretch: 100%; font-size: 18px;">Renewed attacks on energy shipping have pushed up crude prices</tspan></text></g><g id="chart-svg"><g id="svg-main-svg" transform="translate(0, 62.26563)"><g id="group-svg" transform="translate(0, 18)"><g id="x-grid-svg"/><g id="y-grid-svg"><g id="y-grid-lines-svg grid-y-svg datawrapper-wrw0t-12rd0or-svg"><line x1="0" x2="663.7" y1="0" y2="0" style="fill: none; stroke-width: 1; stroke-linejoin: miter; stroke-linecap: butt; stroke: rgb(83, 83, 83);"/><line x1="0" x2="663.7" y1="0" y2="0" transform="translate(0, 50)" style="fill: none; stroke-width: 1; stroke-linejoin: miter; stroke-linecap: butt; stroke: rgb(83, 83, 83);"/><line x1="0" x2="663.7" y1="0" y2="0" transform="translate(0, 100)" style="fill: none; stroke-width: 1; stroke-linejoin: miter; stroke-linecap: butt; stroke: rgb(83, 83, 83);"/><line x1="0" x2="663.7" y1="0" y2="0" transform="translate(0, 150)" style="fill: none; stroke-width: 1; stroke-linejoin: miter; stroke-linecap: butt; stroke: rgb(83, 83, 83);"/><line x1="0" x2="663.7" y1="0" y2="0" transform="translate(0, 200)" style="fill: none; stroke-width: 1; stroke-linejoin: miter; stroke-linecap: butt; stroke: rgb(83, 83, 83);"/><line x1="0" x2="663.7" y1="0" y2="0" transform="translate(0, 250)" style="fill: none; stroke-width: 1; stroke-linejoin: miter; stroke-linecap: butt; stroke: rgb(83, 83, 83);"/></g></g><g id="area-fills-svg"><path d="M50,135.3L60.008,136.025L63.345,131.075L66.681,129L70.017,123.225L73.353,123.275L83.361,134.25L86.697,131.675L90.034,126.35L93.37,131.125L96.706,129.875L106.714,127.4L110.05,128L113.386,126.5L116.723,131.2L120.059,130.625L130.067,128.375L133.403,131.45L136.739,124.125L140.075,120.85L143.412,120.6L153.42,121.275L156.756,123.075L160.092,122.875L163.428,123.125L166.764,118.8L176.773,105.65L180.109,96.5L183.445,96.5L186.781,86.475L190.117,68.275L200.126,52.6L203.462,80.5L206.798,70.05L210.134,48.85L213.47,42.15L223.479,49.475L226.815,41.45L230.151,31.55L233.487,28.375L236.823,19.525L246.831,50.15L250.168,38.775L253.504,44.45L256.84,29.975L260.176,18.575L270.045,18.05L273.382,4.125L276.718,47.1L280.054,27.425L293.398,25.575L296.734,26.825L300.071,63.125L303.407,60.2L306.743,62L316.751,51.6L320.087,63.025L323.423,62.675L326.76,51.525L330.096,74.05L340.104,61.3L343.44,53.8L346.776,45.225L350.112,37.325L353.449,36.675L363.457,29.425L366.793,21.85L370.129,4.925L373.465,14.975L376.801,29.575L386.81,13.9L390.146,25.325L393.482,46.825L396.818,49.85L400.154,46.775L410.163,39.475L413.499,30.575L416.835,35.925L420.171,35.7L423.507,26.85L433.516,19.75L436.852,21.8L440.188,37.45L443.524,43.55L446.86,41.15L456.869,59.65L460.205,51.05L463.541,64.275L466.877,65.725L470.213,69.875L480.221,62.55L483.558,60L486.894,55.475L490.23,62.425L493.566,67.275L503.574,64.375L506.91,71.375L510.247,67.25L513.583,74.05L516.919,81.675L526.927,92.075L530.263,102.6L533.599,101.125L536.936,100.375L540.272,98.575L550.28,105.25L553.616,107.3L556.952,115.65L560.288,111.85L563.625,120.025L573.633,117.125L576.969,117.7L580.305,121.075L583.641,120.5L586.977,119.7L596.986,120.025L600.322,114.6L603.658,104.95L606.994,109.25L610.33,109.975L620.339,91.75L623.675,88.175L627.011,87.625L630.347,89.425L633.683,79.75L643.692,76.95L647.028,72.475L650.364,64.825L653.7,48.325L653.7,300L650.364,300L647.028,300L643.692,300L633.683,300L630.347,300L627.011,300L623.675,300L620.339,300L610.33,300L606.994,300L603.658,300L600.322,300L596.986,300L586.977,300L583.641,300L580.305,300L576.969,300L573.633,300L563.625,300L560.288,300L556.952,300L553.616,300L550.28,300L540.272,300L536.936,300L533.599,300L530.263,300L526.927,300L516.919,300L513.583,300L510.247,300L506.91,300L503.574,300L493.566,300L490.23,300L486.894,300L483.558,300L480.221,300L470.213,300L466.877,300L463.541,300L460.205,300L456.869,300L446.86,300L443.524,300L440.188,300L436.852,300L433.516,300L423.507,300L420.171,300L416.835,300L413.499,300L410.163,300L400.154,300L396.818,300L393.482,300L390.146,300L386.81,300L376.801,300L373.465,300L370.129,300L366.793,300L363.457,300L353.449,300L350.112,300L346.776,300L343.44,300L340.104,300L330.096,300L326.76,300L323.423,300L320.087,300L316.751,300L306.743,300L303.407,300L300.071,300L296.734,300L293.398,300L280.054,300L276.718,300L273.382,300L270.045,300L260.176,300L256.84,300L253.504,300L250.168,300L246.831,300L236.823,300L233.487,300L230.151,300L226.815,300L223.479,300L213.47,300L210.134,300L206.798,300L203.462,300L200.126,300L190.117,300L186.781,300L183.445,300L180.109,300L176.773,300L166.764,300L163.428,300L160.092,300L156.756,300L153.42,300L143.412,300L140.075,300L136.739,300L133.403,300L130.067,300L120.059,300L116.723,300L113.386,300L110.05,300L106.714,300L96.706,300L93.37,300L90.034,300L86.697,300L83.361,300L73.353,300L70.017,300L66.681,300L63.345,300L60.008,300L50,300Z" id="area-zero-baseline-brent-crude-futures-0" style="fill: rgb(221, 76, 19); opacity: 0.3;"/></g><g id="lines-svg"><g id="Brent-svg crude-svg futures-svg"><g id="Brent-svg crude-svg futures-svg"><path d="M50,135.3L60.008,136.025L63.345,131.075L66.681,129L70.017,123.225L73.353,123.275L83.361,134.25L86.697,131.675L90.034,126.35L93.37,131.125L96.706,129.875L106.714,127.4L110.05,128L113.386,126.5L116.723,131.2L120.059,130.625L130.067,128.375L133.403,131.45L136.739,124.125L140.075,120.85L143.412,120.6L153.42,121.275L156.756,123.075L160.092,122.875L163.428,123.125L166.764,118.8L176.773,105.65L180.109,96.5L183.445,96.5L186.781,86.475L190.117,68.275L200.126,52.6L203.462,80.5L206.798,70.05L210.134,48.85L213.47,42.15L223.479,49.475L226.815,41.45L230.151,31.55L233.487,28.375L236.823,19.525L246.831,50.15L250.168,38.775L253.504,44.45L256.84,29.975L260.176,18.575L270.045,18.05L273.382,4.125L276.718,47.1L280.054,27.425L293.398,25.575L296.734,26.825L300.071,63.125L303.407,60.2L306.743,62L316.751,51.6L320.087,63.025L323.423,62.675L326.76,51.525L330.096,74.05L340.104,61.3L343.44,53.8L346.776,45.225L350.112,37.325L353.449,36.675L363.457,29.425L366.793,21.85L370.129,4.925L373.465,14.975L376.801,29.575L386.81,13.9L390.146,25.325L393.482,46.825L396.818,49.85L400.154,46.775L410.163,39.475L413.499,30.575L416.835,35.925L420.171,35.7L423.507,26.85L433.516,19.75L436.852,21.8L440.188,37.45L443.524,43.55L446.86,41.15L456.869,59.65L460.205,51.05L463.541,64.275L466.877,65.725L470.213,69.875L480.221,62.55L483.558,60L486.894,55.475L490.23,62.425L493.566,67.275L503.574,64.375L506.91,71.375L510.247,67.25L513.583,74.05L516.919,81.675L526.927,92.075L530.263,102.6L533.599,101.125L536.936,100.375L540.272,98.575L550.28,105.25L553.616,107.3L556.952,115.65L560.288,111.85L563.625,120.025L573.633,117.125L576.969,117.7L580.305,121.075L583.641,120.5L586.977,119.7L596.986,120.025L600.322,114.6L603.658,104.95L606.994,109.25L610.33,109.975L620.339,91.75L623.675,88.175L627.011,87.625L630.347,89.425L633.683,79.75L643.692,76.95L647.028,72.475L650.364,64.825L653.7,48.325" stroke="rgb(221,76,19)" id="Brent crude futures" style="fill: none; stroke-width: 3; stroke-linejoin: round; stroke-linecap: round; stroke: rgb(221, 76, 19);"/></g><g id="Brent-svg crude-svg futures-svg"><path d="M1,0A1,1,0,1,1,-1,0A1,1,0,1,1,1,0" transform="translate(653.7, 48.325) scale(5)" style="fill: rgb(221, 76, 19);"/></g></g></g><g id="lbl-connect-lines-svg"/><g id="x-grid-svg"><g id="x-tick-labels-svg date-axis-svg grid-x-svg datawrapper-wrw0t-wjefgj-svg svelte-qac4x9-svg" transform="translate(0, 310)"><text transform="translate(80.02514, 14) translate(-12.42969, 0) translate(12.4296875, 0)" style="text-anchor: middle;"><tspan fill="rgb(214, 214, 214)" style="font-family: Knowledge; font-weight: 300; font-stretch: 100%; font-size: 14px;" x="0" dominant-baseline="auto" y="0">Feb.</tspan></text><text transform="translate(173.4367, 14) translate(-17.90625, 0) translate(17.90625, 0)" style="text-anchor: middle;"><tspan fill="rgb(214, 214, 214)" style="font-family: Knowledge; font-weight: 300; font-stretch: 100%; font-size: 14px;" x="0" dominant-baseline="auto" y="0">March</tspan></text><text transform="translate(276.71764, 14) translate(-13.80896, 0) translate(13.8089599609375, 0)" style="text-anchor: middle;"><tspan fill="rgb(214, 214, 214)" style="font-family: Knowledge; font-weight: 300; font-stretch: 100%; font-size: 14px;" x="0" dominant-baseline="auto" y="0">April</tspan></text><text transform="translate(376.80145, 14) translate(-11.91095, 0) translate(11.91094970703125, 0)" style="text-anchor: middle;"><tspan fill="rgb(214, 214, 214)" style="font-family: Knowledge; font-weight: 300; font-stretch: 100%; font-size: 14px;" x="0" dominant-baseline="auto" y="0">May</tspan></text><text transform="translate(480.22139, 14) translate(-13.41197, 0) translate(13.411972045898438, 0)" style="text-anchor: middle;"><tspan fill="rgb(214, 214, 214)" style="font-family: Knowledge; font-weight: 300; font-stretch: 100%; font-size: 14px;" x="0" dominant-baseline="auto" y="0">June</tspan></text><text transform="translate(580.3052, 14) translate(-10.97296, 0) translate(10.97296142578125, 0)" style="text-anchor: middle;"><tspan fill="rgb(214, 214, 214)" style="font-family: Knowledge; font-weight: 300; font-stretch: 100%; font-size: 14px;" x="0" dominant-baseline="auto" y="0">July</tspan></text><g id="highlighted-ticks-svg"/></g><g id="x-tick-lines-svg grid-x-svg datawrapper-wrw0t-13gsimp-svg" transform="translate(0, 300)"><line x1="0" x2="0" y1="5" y2="0" transform="translate(80.02514, 0)" style="fill: none; stroke-width: 1; stroke-linejoin: miter; stroke-linecap: butt; stroke: rgb(83, 83, 83);"/><line x1="0" x2="0" y1="5" y2="0" transform="translate(173.4367, 0)" style="fill: none; stroke-width: 1; stroke-linejoin: miter; stroke-linecap: butt; stroke: rgb(83, 83, 83);"/><line x1="0" x2="0" y1="5" y2="0" transform="translate(276.71764, 0)" style="fill: none; stroke-width: 1; stroke-linejoin: miter; stroke-linecap: butt; stroke: rgb(83, 83, 83);"/><line x1="0" x2="0" y1="5" y2="0" transform="translate(376.80145, 0)" style="fill: none; stroke-width: 1; stroke-linejoin: miter; stroke-linecap: butt; stroke: rgb(83, 83, 83);"/><line x1="0" x2="0" y1="5" y2="0" transform="translate(480.22139, 0)" style="fill: none; stroke-width: 1; stroke-linejoin: miter; stroke-linecap: butt; stroke: rgb(83, 83, 83);"/><line x1="0" x2="0" y1="5" y2="0" transform="translate(580.3052, 0)" style="fill: none; stroke-width: 1; stroke-linejoin: miter; stroke-linecap: butt; stroke: rgb(83, 83, 83);"/></g></g><g id="y-grid-svg"><g id="y-tick-labels-svg number-axis-svg grid-y-svg datawrapper-wrw0t-19eoc3r-svg"><text transform="translate(0, 295) translate(0, 0)"><tspan fill="rgb(134, 134, 134)" style="font-family: Knowledge; font-weight: 300; font-stretch: 100%; font-size: 14px;" x="0" dominant-baseline="auto" y="0">0</tspan></text><text transform="translate(0, 245) translate(0, 0)"><tspan fill="rgb(134, 134, 134)" style="font-family: Knowledge; font-weight: 300; font-stretch: 100%; font-size: 14px;" x="0" dominant-baseline="auto" y="0">20</tspan></text><text transform="translate(0, 195) translate(0, 0)"><tspan fill="rgb(134, 134, 134)" style="font-family: Knowledge; font-weight: 300; font-stretch: 100%; font-size: 14px;" x="0" dominant-baseline="auto" y="0">40</tspan></text><text transform="translate(0, 145) translate(0, 0)"><tspan fill="rgb(134, 134, 134)" style="font-family: Knowledge; font-weight: 300; font-stretch: 100%; font-size: 14px;" x="0" dominant-baseline="auto" y="0">60</tspan></text><text transform="translate(0, 95) translate(0, 0)"><tspan fill="rgb(134, 134, 134)" style="font-family: Knowledge; font-weight: 300; font-stretch: 100%; font-size: 14px;" x="0" dominant-baseline="auto" y="0">80</tspan></text><text transform="translate(0, 45) translate(0, 0)"><tspan fill="rgb(134, 134, 134)" style="font-family: Knowledge; font-weight: 300; font-stretch: 100%; font-size: 14px;" x="0" dominant-baseline="auto" y="0">100</tspan></text><text transform="translate(0, -5) translate(0, 0)"><tspan fill="rgb(134, 134, 134)" style="font-family: Knowledge; font-weight: 300; font-stretch: 100%; font-size: 14px;" x="0" dominant-baseline="auto" y="0">$120/bbl</tspan></text></g><g id="y-base-lines-svg grid-y-svg datawrapper-wrw0t-1esh9m7-svg"><line x1="663.7" x2="0" y1="0" y2="0" transform="translate(0, 300)" style="fill: none; stroke-width: 1; stroke-linejoin: miter; stroke-linecap: square; stroke: rgb(218, 218, 218);"/></g></g><g id="value-labels-svg"/><g id="inner-value-labels-svg"><g id="Brent-svg crude-svg futures-svg"><g id="$100.67-svg"><text transform="translate(663.7, 48.32500000000001)"><tspan x="0" y="4.200000000000001" style="font-family: Knowledge; font-weight: 300; font-stretch: 100%; font-size: 14px; stroke: rgb(37, 37, 37); stroke-width: 2; stroke-linejoin: miter; stroke-linecap: butt;">$100.67</tspan></text><text transform="translate(663.7, 48.32500000000001)"><tspan fill="rgb(255, 109, 50)" style="font-family: Knowledge; font-weight: 300; font-stretch: 100%; font-size: 14px;" x="0" y="4.200000000000001">$100.67</tspan></text></g></g></g></g></g><line x1="502.59375" x2="502.59375" y1="80.265625" y2="380.265625" style="fill: none; stroke-width: 2; stroke-dasharray: 8, 4; stroke: rgba(255, 255, 255, 0.24);"/><g id="Iran-U.S.-svg interim-svg peace-svg deal-svg"><text transform="translate(511, 75.265625)"><tspan x="0" y="14" style="font-family: Knowledge; font-weight: 300; font-stretch: 100%; font-size: 14px; stroke: rgb(37, 37, 37); stroke-width: 4; stroke-linejoin: round; stroke-linecap: round;">Iran-U.S. interim </tspan><tspan x="0" y="30.796875" style="font-family: Knowledge; font-weight: 300; font-stretch: 100%; font-size: 14px; stroke: rgb(37, 37, 37); stroke-width: 4; stroke-linejoin: round; stroke-linecap: round;">peace deal</tspan></text><text transform="translate(511, 75.265625)"><tspan fill="rgb(218,218,218)" x="0" y="14" style="font-family: Knowledge; font-weight: 300; font-stretch: 100%; font-size: 14px;">Iran-U.S. interim </tspan><tspan fill="rgb(218,218,218)" x="0" y="30.796875" style="font-family: Knowledge; font-weight: 300; font-stretch: 100%; font-size: 14px;">peace deal</tspan></text></g><g id="tooltip-layer-svg" transform="translate(0, 62.26563)"><g id="group-svg" transform="translate(0, 18)"/></g></g></g></g><g id="container-svg container-footer-svg datawrapper-wrw0t-fzjq4h-svg"><g id="container-svg container-footerLeft-svg datawrapper-wrw0t-1la8dcw-svg"><text transform="translate(0, 427.265625)"><tspan fill="rgb(187,187,187)" x="0" y="13" style="font-family: Knowledge; font-weight: 300; font-stretch: 100%; font-size: 13px;">Source: LSEG | REUTERS, July 23, 2026</tspan><tspan fill="rgb(187,187,187)" dx="3.2" style="font-family: Knowledge; font-weight: 300; font-stretch: 100%; font-size: 13px;">|</tspan><tspan fill="rgb(187,187,187)" dx="3.2" style="font-family: Knowledge; font-weight: 300; font-stretch: 100%; font-size: 13px;">Sumanta Sen</tspan></text></g></g></g></g></g></g></svg>