<svg xmlns="http://www.w3.org/2000/svg" xmlns:xlink="http://www.w3.org/1999/xlink" id="exportSvg" width="620" height="496"><defs/><rect width="620" height="496" transform="translate(0, 0)" fill="rgb(255, 255, 255)" style="fill: rgb(255, 255, 255);"/><g><g><g id="__svelte-dw-svg" clip-path="url(#rect-mask-9xLRVZUD03v8S8UE0-bR4)"><clipPath id="rect-mask-9xLRVZUD03v8S8UE0-bR4"><rect x="0" y="0" width="620" height="476.75"/></clipPath><g id="container-svg container-body-svg datawrapper-lg30Q-cb4ab8-svg"><g id="container-svg container-bodyTop-svg datawrapper-lg30Q-lmtz6e-svg"><g id="container-svg container-bodyCenter-svg datawrapper-lg30Q-1fgvipr-svg"><g id="container-svg container-header-svg datawrapper-lg30Q-1rz7hyu-svg"><text transform="translate(0, 0)"><tspan fill="rgb(64,64,64)" x="0" y="20" style="font-family: Knowledge; font-weight: 700; font-stretch: 100%; font-size: 18px;">Greenhouse gas emissions are still rising (Copy)</tspan></text></g><g id="chart-svg"><g id="svg-main-svg" transform="translate(0, 97)"><g id="group-svg" transform="translate(0.5, 18)"><g id="x-grid-svg"><g id="x-grid-lines-svg grid-x-svg datawrapper-lg30Q-sfu2tk-svg"><line x1="0" x2="0" y1="280.75" y2="0" transform="translate(72.29745, 0)" style="fill: none; stroke-width: 1; stroke-linejoin: miter; stroke-linecap: butt; stroke: rgb(204, 204, 204);"/><line x1="0" x2="0" y1="280.75" y2="0" transform="translate(138.15136, 0)" style="fill: none; stroke-width: 1; stroke-linejoin: miter; stroke-linecap: butt; stroke: rgb(204, 204, 204);"/><line x1="0" x2="0" y1="280.75" y2="0" transform="translate(204.00522, 0)" style="fill: none; stroke-width: 1; stroke-linejoin: miter; stroke-linecap: butt; stroke: rgb(204, 204, 204);"/><line x1="0" x2="0" y1="280.75" y2="0" transform="translate(269.85012, 0)" style="fill: none; stroke-width: 1; stroke-linejoin: miter; stroke-linecap: butt; stroke: rgb(204, 204, 204);"/><line x1="0" x2="0" y1="280.75" y2="0" transform="translate(335.70403, 0)" style="fill: none; stroke-width: 1; stroke-linejoin: miter; stroke-linecap: butt; stroke: rgb(204, 204, 204);"/><line x1="0" x2="0" y1="280.75" y2="0" transform="translate(401.55793, 0)" style="fill: none; stroke-width: 1; stroke-linejoin: miter; stroke-linecap: butt; stroke: rgb(204, 204, 204);"/><line x1="0" x2="0" y1="280.75" y2="0" transform="translate(467.41184, 0)" style="fill: none; stroke-width: 1; stroke-linejoin: miter; stroke-linecap: butt; stroke: rgb(204, 204, 204);"/><line x1="0" x2="0" y1="280.75" y2="0" transform="translate(533.26575, 0)" style="fill: none; stroke-width: 1; stroke-linejoin: miter; stroke-linecap: butt; stroke: rgb(204, 204, 204);"/><line x1="0" x2="0" y1="280.75" y2="0" transform="translate(599.11966, 0)" style="fill: none; stroke-width: 1; stroke-linejoin: miter; stroke-linecap: butt; stroke: rgb(204, 204, 204);"/></g></g><g id="y-grid-svg"><g id="y-grid-lines-svg grid-y-svg datawrapper-lg30Q-sfu2tk-svg"><line x1="0" x2="619" y1="0" y2="0" style="fill: none; stroke-width: 1; stroke-linejoin: miter; stroke-linecap: butt; stroke: rgb(204, 204, 204);"/><line x1="0" x2="619" y1="0" y2="0" transform="translate(0, 46.79167)" style="fill: none; stroke-width: 1; stroke-linejoin: miter; stroke-linecap: butt; stroke: rgb(204, 204, 204);"/><line x1="0" x2="619" y1="0" y2="0" transform="translate(0, 93.58333)" style="fill: none; stroke-width: 1; stroke-linejoin: miter; stroke-linecap: butt; stroke: rgb(204, 204, 204);"/><line x1="0" x2="619" y1="0" y2="0" transform="translate(0, 140.375)" style="fill: none; stroke-width: 1; stroke-linejoin: miter; stroke-linecap: butt; stroke: rgb(204, 204, 204);"/><line x1="0" x2="619" y1="0" y2="0" transform="translate(0, 187.16667)" style="fill: none; stroke-width: 1; stroke-linejoin: miter; stroke-linecap: butt; stroke: rgb(204, 204, 204);"/><line x1="0" x2="619" y1="0" y2="0" transform="translate(0, 233.95833)" style="fill: none; stroke-width: 1; stroke-linejoin: miter; stroke-linecap: butt; stroke: rgb(204, 204, 204);"/></g></g><g id="areas-svg"><path d="M39.375,280.75L42.665,280.75L45.956,280.75L49.255,280.75L52.546,280.75L55.836,280.75L59.127,280.75L62.426,280.75L65.717,280.75L69.007,280.75L72.297,280.75L75.597,280.75L78.887,280.75L82.178,280.75L85.468,280.75L88.768,280.75L92.058,280.75L95.349,280.75L98.639,280.75L101.938,280.75L105.229,280.75L108.519,280.75L111.81,280.75L115.109,280.75L118.4,280.75L121.69,280.75L124.981,280.75L128.28,280.75L131.57,280.75L134.861,280.75L138.151,280.75L141.451,280.75L144.741,280.75L148.032,280.75L151.322,280.75L154.622,280.75L157.912,280.75L161.202,280.75L164.493,280.75L167.792,280.75L171.083,280.75L174.373,280.75L177.664,280.75L180.963,280.75L184.254,280.75L187.544,280.75L190.834,280.75L194.134,280.75L197.424,280.75L200.715,280.75L204.005,280.75L207.296,280.75L210.586,280.75L213.877,280.75L217.167,280.75L220.466,280.75L223.757,280.75L227.047,280.75L230.338,280.75L233.637,280.75L236.928,280.75L240.218,280.75L243.509,280.75L246.808,280.75L250.098,280.75L253.389,280.75L256.679,280.75L259.979,280.75L263.269,280.75L266.56,280.75L269.85,280.75L273.15,280.75L276.44,280.75L279.73,280.75L283.021,280.75L286.32,280.75L289.611,280.75L292.901,280.75L296.192,280.75L299.491,280.75L302.782,280.75L306.072,280.75L309.362,280.75L312.662,280.75L315.952,280.75L319.243,280.75L322.533,280.75L325.833,280.75L329.123,280.75L332.414,280.75L335.704,280.75L339.003,280.75L342.294,280.75L345.584,280.75L348.875,280.75L352.174,280.75L355.465,280.75L358.755,280.75L362.046,280.75L365.345,280.75L368.635,280.75L371.926,280.75L375.216,280.75L378.516,280.75L381.806,280.75L385.097,280.75L388.387,280.75L391.687,280.75L394.977,280.75L398.267,280.75L401.558,280.75L404.857,280.75L408.148,280.75L411.438,280.75L414.729,280.75L418.028,280.75L421.319,280.75L424.609,280.75L427.899,280.75L431.199,280.75L434.489,280.75L437.78,280.75L441.07,280.75L444.37,280.75L447.66,280.75L450.951,280.75L454.241,280.75L457.541,280.75L460.831,280.75L464.121,280.75L467.412,280.75L470.711,280.75L474.002,280.75L477.292,280.75L480.583,280.75L483.882,280.75L487.173,280.75L490.463,280.75L493.753,280.75L497.053,280.75L500.343,280.75L503.634,280.75L506.924,280.75L510.224,280.75L513.514,280.75L516.805,280.75L520.095,280.75L523.394,280.75L526.685,280.75L529.975,280.75L533.266,280.75L536.565,280.75L539.856,280.75L543.146,280.75L546.437,280.75L549.736,280.75L553.026,280.75L556.317,280.75L559.607,280.75L562.907,280.75L566.197,280.75L569.488,280.75L572.778,280.75L576.078,280.75L579.368,280.75L582.658,280.75L585.949,280.75L589.248,280.75L592.539,280.75L595.829,280.75L599.12,280.75L602.419,280.75L605.71,280.75L609,280.75L609,277.349L605.71,277.236L602.419,277.227L599.12,277.235L595.829,277.146L592.539,276.976L589.248,276.828L585.949,276.9L582.658,277.105L579.368,276.981L576.078,276.947L572.778,276.521L569.488,276.251L566.197,276.122L562.907,276.852L559.607,276.515L556.317,276.814L553.026,276.884L549.736,277.174L546.437,276.736L543.146,276.811L539.856,276.89L536.565,276.595L533.266,276.601L529.975,276.866L526.685,276.928L523.394,277.189L520.095,277.057L516.805,277.151L513.514,277.617L510.224,277.522L506.924,277.542L503.634,277.847L500.343,277.739L497.053,277.911L493.753,278.018L490.463,278.051L487.173,277.987L483.882,277.57L480.583,277.901L477.292,277.638L474.002,277.756L470.711,277.747L467.412,277.493L464.121,277.819L460.831,277.949L457.541,277.67L454.241,277.921L450.951,277.903L447.66,278.214L444.37,278.338L441.07,278.415L437.78,278.331L434.489,278.392L431.199,278.358L427.899,278.14L424.609,277.722L421.319,278.32L418.028,278.344L414.729,278.407L411.438,278.524L408.148,278.756L404.857,278.528L401.558,278.712L398.267,278.58L394.977,278.588L391.687,278.637L388.387,278.703L385.097,278.808L381.806,278.795L378.516,278.912L375.216,278.999L371.926,279.027L368.635,279.169L365.345,279.364L362.046,279.404L358.755,279.514L355.465,279.509L352.174,279.595L348.875,279.577L345.584,279.577L342.294,279.63L339.003,279.598L335.704,279.728L332.414,279.703L329.123,279.706L325.833,279.727L322.533,279.762L319.243,279.719L315.952,279.72L312.662,279.739L309.362,279.706L306.072,279.698L302.782,279.63L299.491,279.528L296.192,279.476L292.901,279.468L289.611,279.505L286.32,279.562L283.021,279.542L279.73,279.526L276.44,279.606L273.15,279.624L269.85,279.623L266.56,279.788L263.269,279.736L259.979,279.815L256.679,279.753L253.389,279.739L250.098,279.768L246.808,279.779L243.509,279.79L240.218,279.806L236.928,279.805L233.637,279.854L230.338,279.835L227.047,279.807L223.757,279.84L220.466,279.768L217.167,279.808L213.877,279.841L210.586,279.886L207.296,279.809L204.005,279.746L200.715,279.405L197.424,279.41L194.134,279.407L190.834,279.482L187.544,279.45L184.254,279.51L180.963,279.513L177.664,279.516L174.373,279.572L171.083,279.643L167.792,280.057L164.493,280.04L161.202,280.047L157.912,280.114L154.622,280.129L151.322,280.076L148.032,280.127L144.741,280.117L141.451,280.121L138.151,280.173L134.861,280.097L131.57,280.176L128.28,280.157L124.981,280.123L121.69,280.168L118.4,280.201L115.109,280.199L111.81,280.225L108.519,280.264L105.229,280.218L101.938,280.24L98.639,280.342L95.349,280.296L92.058,280.311L88.768,280.286L85.468,280.337L82.178,280.331L78.887,280.386L75.597,280.366L72.297,280.361L69.007,280.408L65.717,280.379L62.426,280.395L59.127,280.467L55.836,280.404L52.546,280.421L49.255,280.439L45.956,280.434L42.665,280.383L39.375,280.418Z" id="Oceania" style="fill: rgb(102, 102, 102); opacity: 0.5;"/><path d="M39.375,280.418L42.665,280.383L45.956,280.434L49.255,280.439L52.546,280.421L55.836,280.404L59.127,280.467L62.426,280.395L65.717,280.379L69.007,280.408L72.297,280.361L75.597,280.366L78.887,280.386L82.178,280.331L85.468,280.337L88.768,280.286L92.058,280.311L95.349,280.296L98.639,280.342L101.938,280.24L105.229,280.218L108.519,280.264L111.81,280.225L115.109,280.199L118.4,280.201L121.69,280.168L124.981,280.123L128.28,280.157L131.57,280.176L134.861,280.097L138.151,280.173L141.451,280.121L144.741,280.117L148.032,280.127L151.322,280.076L154.622,280.129L157.912,280.114L161.202,280.047L164.493,280.04L167.792,280.057L171.083,279.643L174.373,279.572L177.664,279.516L180.963,279.513L184.254,279.51L187.544,279.45L190.834,279.482L194.134,279.407L197.424,279.41L200.715,279.405L204.005,279.746L207.296,279.809L210.586,279.886L213.877,279.841L217.167,279.808L220.466,279.768L223.757,279.84L227.047,279.807L230.338,279.835L233.637,279.854L236.928,279.805L240.218,279.806L243.509,279.79L246.808,279.779L250.098,279.768L253.389,279.739L256.679,279.753L259.979,279.815L263.269,279.736L266.56,279.788L269.85,279.623L273.15,279.624L276.44,279.606L279.73,279.526L283.021,279.542L286.32,279.562L289.611,279.505L292.901,279.468L296.192,279.476L299.491,279.528L302.782,279.63L306.072,279.698L309.362,279.706L312.662,279.739L315.952,279.72L319.243,279.719L322.533,279.762L325.833,279.727L329.123,279.706L332.414,279.703L335.704,279.728L339.003,279.598L342.294,279.63L345.584,279.577L348.875,279.577L352.174,279.595L355.465,279.509L358.755,279.514L362.046,279.404L365.345,279.364L368.635,279.169L371.926,279.027L375.216,278.999L378.516,278.912L381.806,278.795L385.097,278.808L388.387,278.703L391.687,278.637L394.977,278.588L398.267,278.58L401.558,278.712L404.857,278.528L408.148,278.756L411.438,278.524L414.729,278.407L418.028,278.344L421.319,278.32L424.609,277.722L427.899,278.14L431.199,278.358L434.489,278.392L437.78,278.331L441.07,278.415L444.37,278.338L447.66,278.214L450.951,277.903L454.241,277.921L457.541,277.67L460.831,277.949L464.121,277.819L467.412,277.493L470.711,277.747L474.002,277.756L477.292,277.638L480.583,277.901L483.882,277.57L487.173,277.987L490.463,278.051L493.753,278.018L497.053,277.911L500.343,277.739L503.634,277.847L506.924,277.542L510.224,277.522L513.514,277.617L516.805,277.151L520.095,277.057L523.394,277.189L526.685,276.928L529.975,276.866L533.266,276.601L536.565,276.595L539.856,276.89L543.146,276.811L546.437,276.736L549.736,277.174L553.026,276.884L556.317,276.814L559.607,276.515L562.907,276.852L566.197,276.122L569.488,276.251L572.778,276.521L576.078,276.947L579.368,276.981L582.658,277.105L585.949,276.9L589.248,276.828L592.539,276.976L595.829,277.146L599.12,277.235L602.419,277.227L605.71,277.236L609,277.349L609,268.204L605.71,268.19L602.419,268.457L599.12,268.635L595.829,267.808L592.539,267.937L589.248,267.62L585.949,267.636L582.658,267.635L579.368,267.315L576.078,267.587L572.778,267.215L569.488,266.903L566.197,267.079L562.907,267.746L559.607,267.126L556.317,267.155L553.026,267.241L549.736,267.674L546.437,267.231L543.146,267.213L539.856,267.46L536.565,267.053L533.266,267.175L529.975,267.531L526.685,267.737L523.394,268.366L520.095,268.386L516.805,268.856L513.514,269.107L510.224,269.547L506.924,269.421L503.634,269.938L500.343,269.522L497.053,269.735L493.753,269.855L490.463,270.071L487.173,270.423L483.882,270.108L480.583,270.472L477.292,270.118L474.002,270.484L470.711,270.346L467.412,270.154L464.121,270.945L460.831,271.225L457.541,271.047L454.241,271.257L450.951,271.519L447.66,271.998L444.37,272.293L441.07,272.189L437.78,272.492L434.489,272.867L431.199,273.141L427.899,273.033L424.609,272.71L421.319,273.5L418.028,273.211L414.729,273.436L411.438,273.567L408.148,273.897L404.857,273.73L401.558,273.743L398.267,272.84L394.977,273.184L391.687,273.493L388.387,273.446L385.097,273.804L381.806,273.827L378.516,274.028L375.216,274.284L371.926,274.27L368.635,274.585L365.345,275.122L362.046,275.048L358.755,275.25L355.465,275.461L352.174,275.523L348.875,275.587L345.584,275.664L342.294,275.749L339.003,275.828L335.704,276.325L332.414,276.477L329.123,276.532L325.833,276.595L322.533,276.696L319.243,276.605L315.952,276.649L312.662,276.823L309.362,276.892L306.072,276.771L302.782,276.675L299.491,276.753L296.192,276.751L292.901,276.564L289.611,276.493L286.32,276.637L283.021,276.544L279.73,276.529L276.44,276.595L273.15,276.55L269.85,276.642L266.56,276.937L263.269,276.84L259.979,276.976L256.679,277.213L253.389,277.209L250.098,277.392L246.808,277.404L243.509,277.333L240.218,277.501L236.928,277.566L233.637,277.569L230.338,277.758L227.047,277.736L223.757,277.79L220.466,277.774L217.167,277.986L213.877,278.041L210.586,278.159L207.296,278.039L204.005,277.98L200.715,278.027L197.424,278.077L194.134,277.92L190.834,278.115L187.544,277.833L184.254,278.036L180.963,278.064L177.664,278.296L174.373,278.344L171.083,278.334L167.792,278.687L164.493,278.801L161.202,278.847L157.912,278.829L154.622,278.748L151.322,278.89L148.032,278.91L144.741,278.907L141.451,279.117L138.151,279.117L134.861,279.322L131.57,279.324L128.28,279.306L124.981,279.163L121.69,279.187L118.4,279.243L115.109,279.413L111.81,279.274L108.519,279.589L105.229,279.182L101.938,279.104L98.639,279.4L95.349,279.306L92.058,279.368L88.768,279.481L85.468,279.441L82.178,279.496L78.887,279.632L75.597,279.531L72.297,279.488L69.007,279.521L65.717,279.549L62.426,279.638L59.127,279.802L55.836,279.757L52.546,279.757L49.255,279.706L45.956,279.577L42.665,279.581L39.375,279.731Z" id="North Am ex-US" style="fill: rgb(64, 147, 178); opacity: 0.5;"/><path d="M39.375,279.731L42.665,279.581L45.956,279.577L49.255,279.706L52.546,279.757L55.836,279.757L59.127,279.802L62.426,279.638L65.717,279.549L69.007,279.521L72.297,279.488L75.597,279.531L78.887,279.632L82.178,279.496L85.468,279.441L88.768,279.481L92.058,279.368L95.349,279.306L98.639,279.4L101.938,279.104L105.229,279.182L108.519,279.589L111.81,279.274L115.109,279.413L118.4,279.243L121.69,279.187L124.981,279.163L128.28,279.306L131.57,279.324L134.861,279.322L138.151,279.117L141.451,279.117L144.741,278.907L148.032,278.91L151.322,278.89L154.622,278.748L157.912,278.829L161.202,278.847L164.493,278.801L167.792,278.687L171.083,278.334L174.373,278.344L177.664,278.296L180.963,278.064L184.254,278.036L187.544,277.833L190.834,278.115L194.134,277.92L197.424,278.077L200.715,278.027L204.005,277.98L207.296,278.039L210.586,278.159L213.877,278.041L217.167,277.986L220.466,277.774L223.757,277.79L227.047,277.736L230.338,277.758L233.637,277.569L236.928,277.566L240.218,277.501L243.509,277.333L246.808,277.404L250.098,277.392L253.389,277.209L256.679,277.213L259.979,276.976L263.269,276.84L266.56,276.937L269.85,276.642L273.15,276.55L276.44,276.595L279.73,276.529L283.021,276.544L286.32,276.637L289.611,276.493L292.901,276.564L296.192,276.751L299.491,276.753L302.782,276.675L306.072,276.771L309.362,276.892L312.662,276.823L315.952,276.649L319.243,276.605L322.533,276.696L325.833,276.595L329.123,276.532L332.414,276.477L335.704,276.325L339.003,275.828L342.294,275.749L345.584,275.664L348.875,275.587L352.174,275.523L355.465,275.461L358.755,275.25L362.046,275.048L365.345,275.122L368.635,274.585L371.926,274.27L375.216,274.284L378.516,274.028L381.806,273.827L385.097,273.804L388.387,273.446L391.687,273.493L394.977,273.184L398.267,272.84L401.558,273.743L404.857,273.73L408.148,273.897L411.438,273.567L414.729,273.436L418.028,273.211L421.319,273.5L424.609,272.71L427.899,273.033L431.199,273.141L434.489,272.867L437.78,272.492L441.07,272.189L444.37,272.293L447.66,271.998L450.951,271.519L454.241,271.257L457.541,271.047L460.831,271.225L464.121,270.945L467.412,270.154L470.711,270.346L474.002,270.484L477.292,270.118L480.583,270.472L483.882,270.108L487.173,270.423L490.463,270.071L493.753,269.855L497.053,269.735L500.343,269.522L503.634,269.938L506.924,269.421L510.224,269.547L513.514,269.107L516.805,268.856L520.095,268.386L523.394,268.366L526.685,267.737L529.975,267.531L533.266,267.175L536.565,267.053L539.856,267.46L543.146,267.213L546.437,267.231L549.736,267.674L553.026,267.241L556.317,267.155L559.607,267.126L562.907,267.746L566.197,267.079L569.488,266.903L572.778,267.215L576.078,267.587L579.368,267.315L582.658,267.635L585.949,267.636L589.248,267.62L592.539,267.937L595.829,267.808L599.12,268.635L602.419,268.457L605.71,268.19L609,268.204L609,253.675L605.71,252.555L602.419,252.458L599.12,253.466L595.829,251.236L592.539,250.581L589.248,249.998L585.949,250.174L582.658,250.141L579.368,250.116L576.078,249.709L572.778,248.917L569.488,248.28L566.197,248.001L562.907,249.14L559.607,247.074L556.317,246.569L553.026,246.632L549.736,247.02L546.437,246.449L543.146,246.493L539.856,247.165L536.565,246.731L533.266,246.987L529.975,247.135L526.685,246.918L523.394,247.364L520.095,246.95L516.805,247.79L513.514,248.248L510.224,248.485L506.924,247.827L503.634,247.445L500.343,246.705L497.053,246.846L493.753,247.099L490.463,247.034L487.173,247.46L483.882,247.005L480.583,247.622L477.292,247.456L474.002,247.672L470.711,247.159L467.412,245.827L464.121,246.395L460.831,247.236L457.541,247.729L454.241,247.768L450.951,249.361L447.66,249.5L444.37,249.762L441.07,250.623L437.78,251.512L434.489,252.327L431.199,253.118L427.899,254.012L424.609,254.717L421.319,255.902L418.028,256.137L414.729,256.586L411.438,257.388L408.148,258.517L404.857,259.197L401.558,259.802L398.267,259.728L394.977,260.224L391.687,260.495L388.387,260.83L385.097,261.913L381.806,262.694L378.516,263.445L375.216,263.86L371.926,264.284L368.635,265.405L365.345,266.342L362.046,266.949L358.755,267.712L355.465,268.781L352.174,270.618L348.875,267.453L345.584,266.556L342.294,266.739L339.003,266.938L335.704,267.297L332.414,267.563L329.123,267.775L325.833,267.911L322.533,268.675L319.243,268.787L315.952,269.058L312.662,269.556L309.362,269.771L306.072,269.038L302.782,268.368L299.491,267.856L296.192,268.444L292.901,268.407L289.611,268.96L286.32,268.943L283.021,268.935L279.73,269.832L276.44,269.425L273.15,269.594L269.85,269.896L266.56,271.157L263.269,270.035L259.979,269.867L256.679,270.059L253.389,270.267L250.098,269.996L246.808,269.08L243.509,269.399L240.218,269.886L236.928,270.022L233.637,270.018L230.338,270.175L227.047,270.308L223.757,270.965L220.466,271.047L217.167,271.461L213.877,271.612L210.586,271.993L207.296,271.828L204.005,271.765L200.715,272.099L197.424,272.328L194.134,272.325L190.834,272.708L187.544,272.608L184.254,272.904L180.963,273.081L177.664,273.368L174.373,273.403L171.083,273.506L167.792,274.003L164.493,274.241L161.202,274.435L157.912,274.558L154.622,274.481L151.322,274.651L148.032,274.678L144.741,274.793L141.451,275.114L138.151,275.115L134.861,275.573L131.57,275.653L128.28,275.691L124.981,275.529L121.69,275.627L118.4,275.881L115.109,275.903L111.81,275.87L108.519,276.343L105.229,276.026L101.938,275.97L98.639,276.3L95.349,276.234L92.058,276.39L88.768,276.519L85.468,276.532L82.178,276.634L78.887,276.785L75.597,276.724L72.297,276.719L69.007,276.792L65.717,276.79L62.426,276.892L59.127,277.064L55.836,277.043L52.546,277.072L49.255,277.068L45.956,276.966L42.665,276.997L39.375,277.133Z" id="EU" style="fill: rgb(238, 102, 91); opacity: 0.5;"/><path d="M39.375,277.133L42.665,276.997L45.956,276.966L49.255,277.068L52.546,277.072L55.836,277.043L59.127,277.064L62.426,276.892L65.717,276.79L69.007,276.792L72.297,276.719L75.597,276.724L78.887,276.785L82.178,276.634L85.468,276.532L88.768,276.519L92.058,276.39L95.349,276.234L98.639,276.3L101.938,275.97L105.229,276.026L108.519,276.343L111.81,275.87L115.109,275.903L118.4,275.881L121.69,275.627L124.981,275.529L128.28,275.691L131.57,275.653L134.861,275.573L138.151,275.115L141.451,275.114L144.741,274.793L148.032,274.678L151.322,274.651L154.622,274.481L157.912,274.558L161.202,274.435L164.493,274.241L167.792,274.003L171.083,273.506L174.373,273.403L177.664,273.368L180.963,273.081L184.254,272.904L187.544,272.608L190.834,272.708L194.134,272.325L197.424,272.328L200.715,272.099L204.005,271.765L207.296,271.828L210.586,271.993L213.877,271.612L217.167,271.461L220.466,271.047L223.757,270.965L227.047,270.308L230.338,270.175L233.637,270.018L236.928,270.022L240.218,269.886L243.509,269.399L246.808,269.08L250.098,269.996L253.389,270.267L256.679,270.059L259.979,269.867L263.269,270.035L266.56,271.157L269.85,269.896L273.15,269.594L276.44,269.425L279.73,269.832L283.021,268.935L286.32,268.943L289.611,268.96L292.901,268.407L296.192,268.444L299.491,267.856L302.782,268.368L306.072,269.038L309.362,269.771L312.662,269.556L315.952,269.058L319.243,268.787L322.533,268.675L325.833,267.911L329.123,267.775L332.414,267.563L335.704,267.297L339.003,266.938L342.294,266.739L345.584,266.556L348.875,267.453L352.174,270.618L355.465,268.781L358.755,267.712L362.046,266.949L365.345,266.342L368.635,265.405L371.926,264.284L375.216,263.86L378.516,263.445L381.806,262.694L385.097,261.913L388.387,260.83L391.687,260.495L394.977,260.224L398.267,259.728L401.558,259.802L404.857,259.197L408.148,258.517L411.438,257.388L414.729,256.586L418.028,256.137L421.319,255.902L424.609,254.717L427.899,254.012L431.199,253.118L434.489,252.327L437.78,251.512L441.07,250.623L444.37,249.762L447.66,249.5L450.951,249.361L454.241,247.768L457.541,247.729L460.831,247.236L464.121,246.395L467.412,245.827L470.711,247.159L474.002,247.672L477.292,247.456L480.583,247.622L483.882,247.005L487.173,247.46L490.463,247.034L493.753,247.099L497.053,246.846L500.343,246.705L503.634,247.445L506.924,247.827L510.224,248.485L513.514,248.248L516.805,247.79L520.095,246.95L523.394,247.364L526.685,246.918L529.975,247.135L533.266,246.987L536.565,246.731L539.856,247.165L543.146,246.493L546.437,246.449L549.736,247.02L553.026,246.632L556.317,246.569L559.607,247.074L562.907,249.14L566.197,248.001L569.488,248.28L572.778,248.917L576.078,249.709L579.368,250.116L582.658,250.141L585.949,250.174L589.248,249.998L592.539,250.581L595.829,251.236L599.12,253.466L602.419,252.458L605.71,252.555L609,253.675L609,236.694L605.71,235.584L602.419,235.627L599.12,237.316L595.829,234.714L592.539,233.342L589.248,233.156L585.949,233.164L582.658,233.017L579.368,233.851L576.078,232.493L572.778,230.834L569.488,231.683L566.197,230.329L562.907,233.127L559.607,230.335L556.317,229.947L553.026,229.991L549.736,231.093L546.437,230.319L543.146,230.656L539.856,231.985L536.565,231.338L533.266,231.578L529.975,231.28L526.685,231.057L523.394,230.94L520.095,227.957L516.805,230.509L513.514,230.068L510.224,228.654L506.924,226.282L503.634,222.748L500.343,220.739L497.053,221.855L493.753,221.325L490.463,221.622L487.173,222.137L483.882,221.847L480.583,223.772L477.292,223.637L474.002,224.249L470.711,223.601L467.412,221.581L464.121,222.865L460.831,223.731L457.541,224.78L454.241,225.303L450.951,227.759L447.66,228.285L444.37,228.525L441.07,230.44L437.78,231.653L434.489,232.289L431.199,234.4L427.899,235.553L424.609,236.552L421.319,237.938L418.028,238.549L414.729,239.515L411.438,240.506L408.148,242.057L404.857,241.746L401.558,243.185L398.267,242.673L394.977,245.179L391.687,245.017L388.387,246.13L385.097,248.007L381.806,249.875L378.516,251.531L375.216,252.555L371.926,253.359L368.635,255.378L365.345,257.467L362.046,258.199L358.755,258.765L355.465,260.297L352.174,262.084L348.875,258.549L345.584,258.011L342.294,257.743L339.003,256.576L335.704,256.442L332.414,255.654L329.123,255.906L325.833,256.056L322.533,257.197L319.243,258.008L315.952,258.341L312.662,259.56L309.362,259.924L306.072,259.344L302.782,259.352L299.491,259.481L296.192,260.206L292.901,260.086L289.611,262.216L286.32,261.231L283.021,260.726L279.73,261.997L276.44,262.007L273.15,262.627L269.85,262.542L266.56,264.221L263.269,262.959L259.979,262.142L256.679,262.026L253.389,262.415L250.098,261.945L246.808,260.901L243.509,261.116L240.218,261.117L236.928,260.874L233.637,260.145L230.338,260.566L227.047,260.894L223.757,261.408L220.466,261.757L217.167,262.49L213.877,262.812L210.586,263.13L207.296,263.405L204.005,263.271L200.715,264.068L197.424,264.489L194.134,264.566L190.834,265.384L187.544,265.078L184.254,265.345L180.963,265.789L177.664,266.129L174.373,266.148L171.083,266.627L167.792,267.589L164.493,268.132L161.202,268.125L157.912,268.58L154.622,268.217L151.322,268.228L148.032,268.956L144.741,268.645L141.451,269.265L138.151,269.267L134.861,270.258L131.57,270.25L128.28,270.287L124.981,270.072L121.69,270.107L118.4,270.484L115.109,271.001L111.81,270.679L108.519,271.719L105.229,271.112L101.938,271.436L98.639,271.818L95.349,271.765L92.058,271.759L88.768,272.085L85.468,272.2L82.178,272.301L78.887,272.402L75.597,272.356L72.297,272.911L69.007,272.867L65.717,272.905L62.426,273.011L59.127,272.837L55.836,273.237L52.546,272.928L49.255,273.234L45.956,273.164L42.665,273.127L39.375,273.579Z" id="Rest of Europe" style="fill: rgb(78, 199, 255); opacity: 0.5;"/><path d="M39.375,273.579L42.665,273.127L45.956,273.164L49.255,273.234L52.546,272.928L55.836,273.237L59.127,272.837L62.426,273.011L65.717,272.905L69.007,272.867L72.297,272.911L75.597,272.356L78.887,272.402L82.178,272.301L85.468,272.2L88.768,272.085L92.058,271.759L95.349,271.765L98.639,271.818L101.938,271.436L105.229,271.112L108.519,271.719L111.81,270.679L115.109,271.001L118.4,270.484L121.69,270.107L124.981,270.072L128.28,270.287L131.57,270.25L134.861,270.258L138.151,269.267L141.451,269.265L144.741,268.645L148.032,268.956L151.322,268.228L154.622,268.217L157.912,268.58L161.202,268.125L164.493,268.132L167.792,267.589L171.083,266.627L174.373,266.148L177.664,266.129L180.963,265.789L184.254,265.345L187.544,265.078L190.834,265.384L194.134,264.566L197.424,264.489L200.715,264.068L204.005,263.271L207.296,263.405L210.586,263.13L213.877,262.812L217.167,262.49L220.466,261.757L223.757,261.408L227.047,260.894L230.338,260.566L233.637,260.145L236.928,260.874L240.218,261.117L243.509,261.116L246.808,260.901L250.098,261.945L253.389,262.415L256.679,262.026L259.979,262.142L263.269,262.959L266.56,264.221L269.85,262.542L273.15,262.627L276.44,262.007L279.73,261.997L283.021,260.726L286.32,261.231L289.611,262.216L292.901,260.086L296.192,260.206L299.491,259.481L302.782,259.352L306.072,259.344L309.362,259.924L312.662,259.56L315.952,258.341L319.243,258.008L322.533,257.197L325.833,256.056L329.123,255.906L332.414,255.654L335.704,256.442L339.003,256.576L342.294,257.743L345.584,258.011L348.875,258.549L352.174,262.084L355.465,260.297L358.755,258.765L362.046,258.199L365.345,257.467L368.635,255.378L371.926,253.359L375.216,252.555L378.516,251.531L381.806,249.875L385.097,248.007L388.387,246.13L391.687,245.017L394.977,245.179L398.267,242.673L401.558,243.185L404.857,241.746L408.148,242.057L411.438,240.506L414.729,239.515L418.028,238.549L421.319,237.938L424.609,236.552L427.899,235.553L431.199,234.4L434.489,232.289L437.78,231.653L441.07,230.44L444.37,228.525L447.66,228.285L450.951,227.759L454.241,225.303L457.541,224.78L460.831,223.731L464.121,222.865L467.412,221.581L470.711,223.601L474.002,224.249L477.292,223.637L480.583,223.772L483.882,221.847L487.173,222.137L490.463,221.622L493.753,221.325L497.053,221.855L500.343,220.739L503.634,222.748L506.924,226.282L510.224,228.654L513.514,230.068L516.805,230.509L520.095,227.957L523.394,230.94L526.685,231.057L529.975,231.28L533.266,231.578L536.565,231.338L539.856,231.985L543.146,230.656L546.437,230.319L549.736,231.093L553.026,229.991L556.317,229.947L559.607,230.335L562.907,233.127L566.197,230.329L569.488,231.683L572.778,230.834L576.078,232.493L579.368,233.851L582.658,233.017L585.949,233.164L589.248,233.156L592.539,233.342L595.829,234.714L599.12,237.316L602.419,235.627L605.71,235.584L609,236.694L609,218.644L605.71,217.371L602.419,216.995L599.12,219.755L595.829,216.872L592.539,215.575L589.248,215.009L585.949,214.969L582.658,213.915L579.368,214.122L576.078,212.787L572.778,210.377L569.488,212.358L566.197,211.457L562.907,214.187L559.607,210.938L556.317,210.139L553.026,209.479L549.736,210.167L546.437,208.203L543.146,205.868L539.856,211.981L536.565,212.861L533.266,212.775L529.975,211.652L526.685,211.251L523.394,212.323L520.095,210.348L516.805,212.775L513.514,212.296L510.224,212.982L506.924,211.157L503.634,208.214L500.343,206.769L497.053,208.291L493.753,207.962L490.463,208.106L487.173,208.713L483.882,208.644L480.583,209.109L477.292,210.417L474.002,210.874L470.711,210.409L467.412,208.016L464.121,209.625L460.831,210.717L457.541,212.077L454.241,212.537L450.951,215.526L447.66,216.238L444.37,216.802L441.07,218.892L437.78,220.128L434.489,219.98L431.199,223.629L427.899,224.774L424.609,225.613L421.319,226.927L418.028,227.434L414.729,227.834L411.438,229.161L408.148,230.726L404.857,230.242L401.558,231.816L398.267,231.147L394.977,234.575L391.687,234.516L388.387,235.963L385.097,238.239L381.806,240.747L378.516,242.682L375.216,243.897L371.926,245.192L368.635,247.774L365.345,250.941L362.046,251.726L358.755,252.401L355.465,254.004L352.174,255.905L348.875,252.319L345.584,251.843L342.294,251.632L339.003,250.668L335.704,250.864L332.414,250.827L329.123,250.911L325.833,251.03L322.533,252.178L319.243,253.084L315.952,253.398L312.662,254.559L309.362,254.902L306.072,254.545L302.782,254.248L299.491,253.898L296.192,254.561L292.901,254.37L289.611,256.75L286.32,255.873L283.021,255.481L279.73,256.814L276.44,257.033L273.15,257.854L269.85,257.884L266.56,259.829L263.269,258.666L259.979,257.924L256.679,257.855L253.389,258.433L250.098,257.984L246.808,257.008L243.509,257.245L240.218,257.279L236.928,257.453L233.637,256.922L230.338,257.455L227.047,257.962L223.757,258.475L220.466,258.804L217.167,259.648L213.877,260.097L210.586,260.412L207.296,260.834L204.005,260.891L200.715,261.858L197.424,262.412L194.134,262.498L190.834,263.379L187.544,263.055L184.254,263.413L180.963,263.788L177.664,264.259L174.373,264.196L171.083,264.879L167.792,265.686L164.493,266.363L161.202,266.189L157.912,266.883L154.622,266.502L151.322,266.529L148.032,267.256L144.741,267.078L141.451,267.778L138.151,267.856L134.861,269.152L131.57,268.995L128.28,269.148L124.981,268.845L121.69,268.801L118.4,269.352L115.109,269.812L111.81,269.555L108.519,270.569L105.229,270.101L101.938,270.504L98.639,270.787L95.349,270.826L92.058,270.862L88.768,271.121L85.468,271.233L82.178,271.41L78.887,271.37L75.597,271.256L72.297,271.994L69.007,271.803L65.717,271.752L62.426,271.83L59.127,271.689L55.836,272.124L52.546,271.945L49.255,272.134L45.956,272.181L42.665,272.146L39.375,272.617Z" id="S. America" style="fill: rgb(49, 130, 189); opacity: 0.5;"/><path d="M39.375,272.617L42.665,272.146L45.956,272.181L49.255,272.134L52.546,271.945L55.836,272.124L59.127,271.689L62.426,271.83L65.717,271.752L69.007,271.803L72.297,271.994L75.597,271.256L78.887,271.37L82.178,271.41L85.468,271.233L88.768,271.121L92.058,270.862L95.349,270.826L98.639,270.787L101.938,270.504L105.229,270.101L108.519,270.569L111.81,269.555L115.109,269.812L118.4,269.352L121.69,268.801L124.981,268.845L128.28,269.148L131.57,268.995L134.861,269.152L138.151,267.856L141.451,267.778L144.741,267.078L148.032,267.256L151.322,266.529L154.622,266.502L157.912,266.883L161.202,266.189L164.493,266.363L167.792,265.686L171.083,264.879L174.373,264.196L177.664,264.259L180.963,263.788L184.254,263.413L187.544,263.055L190.834,263.379L194.134,262.498L197.424,262.412L200.715,261.858L204.005,260.891L207.296,260.834L210.586,260.412L213.877,260.097L217.167,259.648L220.466,258.804L223.757,258.475L227.047,257.962L230.338,257.455L233.637,256.922L236.928,257.453L240.218,257.279L243.509,257.245L246.808,257.008L250.098,257.984L253.389,258.433L256.679,257.855L259.979,257.924L263.269,258.666L266.56,259.829L269.85,257.884L273.15,257.854L276.44,257.033L279.73,256.814L283.021,255.481L286.32,255.873L289.611,256.75L292.901,254.37L296.192,254.561L299.491,253.898L302.782,254.248L306.072,254.545L309.362,254.902L312.662,254.559L315.952,253.398L319.243,253.084L322.533,252.178L325.833,251.03L329.123,250.911L332.414,250.827L335.704,250.864L339.003,250.668L342.294,251.632L345.584,251.843L348.875,252.319L352.174,255.905L355.465,254.004L358.755,252.401L362.046,251.726L365.345,250.941L368.635,247.774L371.926,245.192L375.216,243.897L378.516,242.682L381.806,240.747L385.097,238.239L388.387,235.963L391.687,234.516L394.977,234.575L398.267,231.147L401.558,231.816L404.857,230.242L408.148,230.726L411.438,229.161L414.729,227.834L418.028,227.434L421.319,226.927L424.609,225.613L427.899,224.774L431.199,223.629L434.489,219.98L437.78,220.128L441.07,218.892L444.37,216.802L447.66,216.238L450.951,215.526L454.241,212.537L457.541,212.077L460.831,210.717L464.121,209.625L467.412,208.016L470.711,210.409L474.002,210.874L477.292,210.417L480.583,209.109L483.882,208.644L487.173,208.713L490.463,208.106L493.753,207.962L497.053,208.291L500.343,206.769L503.634,208.214L506.924,211.157L510.224,212.982L513.514,212.296L516.805,212.775L520.095,210.348L523.394,212.323L526.685,211.251L529.975,211.652L533.266,212.775L536.565,212.861L539.856,211.981L543.146,205.868L546.437,208.203L549.736,210.167L553.026,209.479L556.317,210.139L559.607,210.938L562.907,214.187L566.197,211.457L569.488,212.358L572.778,210.377L576.078,212.787L579.368,214.122L582.658,213.915L585.949,214.969L589.248,215.009L592.539,215.575L595.829,216.872L599.12,219.755L602.419,216.995L605.71,217.371L609,218.644L609,199.008L605.71,198.874L602.419,199.302L599.12,203.305L595.829,199.594L592.539,198.346L589.248,198.694L585.949,198.971L582.658,198.355L579.368,198.929L576.078,198.108L572.778,195.63L569.488,198.467L566.197,198.019L562.907,201.238L559.607,198.486L556.317,198.368L553.026,198.42L549.736,199.67L546.437,198.083L543.146,196.111L539.856,202.529L536.565,203.423L533.266,203.342L529.975,202.482L526.685,202.495L523.394,203.68L520.095,201.829L516.805,204.703L513.514,204.407L510.224,205.271L506.924,203.498L503.634,200.866L500.343,199.619L497.053,201.206L493.753,201.092L490.463,201.746L487.173,202.342L483.882,202.598L480.583,203.217L477.292,204.393L474.002,205.438L470.711,204.92L467.412,202.786L464.121,204.553L460.831,205.603L457.541,206.777L454.241,207.76L450.951,210.707L447.66,211.472L444.37,212.039L441.07,214.104L437.78,215.704L434.489,215.74L431.199,219.215L427.899,220.475L424.609,221.145L421.319,222.51L418.028,223.266L414.729,223.671L411.438,224.99L408.148,226.511L404.857,225.574L401.558,227.584L398.267,226.464L394.977,229.991L391.687,230.017L388.387,231.577L385.097,233.939L381.806,236.554L378.516,238.599L375.216,239.899L371.926,241.306L368.635,244.024L365.345,247.476L362.046,248.315L358.755,249.024L355.465,250.64L352.174,252.57L348.875,249.044L345.584,248.62L342.294,248.409L339.003,247.488L335.704,247.713L332.414,247.726L329.123,247.844L325.833,248.032L322.533,249.239L319.243,250.179L315.952,250.53L312.662,251.741L309.362,252.119L306.072,251.778L302.782,251.49L299.491,251.181L296.192,251.892L292.901,251.72L289.611,254.144L286.32,253.302L283.021,252.952L279.73,254.347L276.44,254.621L273.15,255.529L269.85,255.711L266.56,257.909L263.269,256.773L259.979,256.053L256.679,256.01L253.389,256.597L250.098,256.158L246.808,255.186L243.509,255.45L240.218,255.508L236.928,255.696L233.637,255.171L230.338,255.697L227.047,256.222L223.757,256.745L220.466,257.075L217.167,257.919L213.877,258.376L210.586,258.694L207.296,259.114L204.005,259.168L200.715,260.153L197.424,260.718L194.134,260.812L190.834,261.704L187.544,261.386L184.254,261.759L180.963,262.138L177.664,262.61L174.373,262.555L171.083,263.245L167.792,264.072L164.493,264.76L161.202,264.605L157.912,265.317L154.622,264.949L151.322,264.988L148.032,265.728L144.741,265.564L141.451,266.281L138.151,266.378L134.861,267.685L131.57,267.533L128.28,267.709L124.981,267.41L121.69,267.379L118.4,267.943L115.109,268.41L111.81,268.163L108.519,269.184L105.229,268.72L101.938,269.132L98.639,269.417L95.349,269.461L92.058,269.493L88.768,269.754L85.468,269.876L82.178,270.05L78.887,270.013L75.597,269.898L72.297,270.636L69.007,270.451L65.717,270.39L62.426,270.467L59.127,270.311L55.836,270.745L52.546,270.549L49.255,270.723L45.956,270.739L42.665,270.643L39.375,270.986Z" id="India" style="fill: rgb(10, 66, 134); opacity: 0.5;"/><path d="M39.375,270.986L42.665,270.643L45.956,270.739L49.255,270.723L52.546,270.549L55.836,270.745L59.127,270.311L62.426,270.467L65.717,270.39L69.007,270.451L72.297,270.636L75.597,269.898L78.887,270.013L82.178,270.05L85.468,269.876L88.768,269.754L92.058,269.493L95.349,269.461L98.639,269.417L101.938,269.132L105.229,268.72L108.519,269.184L111.81,268.163L115.109,268.41L118.4,267.943L121.69,267.379L124.981,267.41L128.28,267.709L131.57,267.533L134.861,267.685L138.151,266.378L141.451,266.281L144.741,265.564L148.032,265.728L151.322,264.988L154.622,264.949L157.912,265.317L161.202,264.605L164.493,264.76L167.792,264.072L171.083,263.245L174.373,262.555L177.664,262.61L180.963,262.138L184.254,261.759L187.544,261.386L190.834,261.704L194.134,260.812L197.424,260.718L200.715,260.153L204.005,259.168L207.296,259.114L210.586,258.694L213.877,258.376L217.167,257.919L220.466,257.075L223.757,256.745L227.047,256.222L230.338,255.697L233.637,255.171L236.928,255.696L240.218,255.508L243.509,255.45L246.808,255.186L250.098,256.158L253.389,256.597L256.679,256.01L259.979,256.053L263.269,256.773L266.56,257.909L269.85,255.711L273.15,255.529L276.44,254.621L279.73,254.347L283.021,252.952L286.32,253.302L289.611,254.144L292.901,251.72L296.192,251.892L299.491,251.181L302.782,251.49L306.072,251.778L309.362,252.119L312.662,251.741L315.952,250.53L319.243,250.179L322.533,249.239L325.833,248.032L329.123,247.844L332.414,247.726L335.704,247.713L339.003,247.488L342.294,248.409L345.584,248.62L348.875,249.044L352.174,252.57L355.465,250.64L358.755,249.024L362.046,248.315L365.345,247.476L368.635,244.024L371.926,241.306L375.216,239.899L378.516,238.599L381.806,236.554L385.097,233.939L388.387,231.577L391.687,230.017L394.977,229.991L398.267,226.464L401.558,227.584L404.857,225.574L408.148,226.511L411.438,224.99L414.729,223.671L418.028,223.266L421.319,222.51L424.609,221.145L427.899,220.475L431.199,219.215L434.489,215.74L437.78,215.704L441.07,214.104L444.37,212.039L447.66,211.472L450.951,210.707L454.241,207.76L457.541,206.777L460.831,205.603L464.121,204.553L467.412,202.786L470.711,204.92L474.002,205.438L477.292,204.393L480.583,203.217L483.882,202.598L487.173,202.342L490.463,201.746L493.753,201.092L497.053,201.206L500.343,199.619L503.634,200.866L506.924,203.498L510.224,205.271L513.514,204.407L516.805,204.703L520.095,201.829L523.394,203.68L526.685,202.495L529.975,202.482L533.266,203.342L536.565,203.423L539.856,202.529L543.146,196.111L546.437,198.083L549.736,199.67L553.026,198.42L556.317,198.368L559.607,198.486L562.907,201.238L566.197,198.019L569.488,198.467L572.778,195.63L576.078,198.108L579.368,198.929L582.658,198.355L585.949,198.971L589.248,198.694L592.539,198.346L595.829,199.594L599.12,203.305L602.419,199.302L605.71,198.874L609,199.008L609,177.194L605.71,177.095L602.419,177.758L599.12,182.411L595.829,177.748L592.539,176.626L589.248,176.102L585.949,176.869L582.658,176.363L579.368,176.318L576.078,175.37L572.778,172.806L569.488,175.704L566.197,175.796L562.907,180.168L559.607,177.83L556.317,179.244L553.026,179.612L549.736,181.028L546.437,179.607L543.146,177.859L539.856,185.292L536.565,186.51L533.266,186.017L529.975,185.522L526.685,185.183L523.394,186.888L520.095,185.258L516.805,188.51L513.514,188.52L510.224,190.654L506.924,189.164L503.634,186.964L500.343,186.25L497.053,188.388L493.753,188.507L490.463,189.233L487.173,190.151L483.882,190.408L480.583,191.214L477.292,193.249L474.002,194.563L470.711,194.277L467.412,191.851L464.121,193.801L460.831,195.202L457.541,196.051L454.241,197.562L450.951,200.823L447.66,201.59L444.37,202.167L441.07,204.472L437.78,206.101L434.489,205.855L431.199,209.704L427.899,211.52L424.609,211.93L421.319,213.761L418.028,214.53L414.729,214.824L411.438,216.1L408.148,217.29L404.857,215.855L401.558,216.901L398.267,215.85L394.977,219.687L391.687,219.982L388.387,221.774L385.097,224.343L381.806,227.202L378.516,229.476L375.216,230.922L371.926,232.336L368.635,235.181L365.345,238.956L362.046,239.997L358.755,241.011L355.465,242.825L352.174,245.006L348.875,241.824L345.584,241.578L342.294,241.731L339.003,241.285L335.704,242.255L332.414,243.205L329.123,243.379L325.833,243.779L322.533,244.998L319.243,246.022L315.952,246.498L312.662,247.655L309.362,248.164L306.072,247.954L302.782,247.922L299.491,247.947L296.192,248.758L292.901,248.547L289.611,251.056L286.32,250.181L283.021,249.995L279.73,251.459L276.44,251.819L273.15,252.86L269.85,253.199L266.56,255.515L263.269,254.432L259.979,253.665L256.679,253.695L253.389,254.235L250.098,254.012L246.808,253.143L243.509,253.42L240.218,253.479L236.928,253.799L233.637,253.354L230.338,253.948L227.047,254.562L223.757,255.083L220.466,255.439L217.167,256.315L213.877,256.868L210.586,257.196L207.296,257.672L204.005,257.674L200.715,258.759L197.424,259.373L194.134,259.505L190.834,260.364L187.544,260.156L184.254,260.517L180.963,260.879L177.664,261.45L174.373,261.25L171.083,262.059L167.792,262.912L164.493,263.615L161.202,263.486L157.912,264.163L154.622,263.788L151.322,263.879L148.032,264.586L144.741,264.359L141.451,265.227L138.151,265.352L134.861,266.584L131.57,266.485L128.28,266.684L124.981,266.388L121.69,266.349L118.4,266.898L115.109,267.366L111.81,267.13L108.519,268.106L105.229,267.68L101.938,268.11L98.639,268.504L95.349,268.492L92.058,268.458L88.768,268.677L85.468,268.786L82.178,268.878L78.887,268.924L75.597,268.724L72.297,269.247L69.007,268.49L65.717,268.629L62.426,268.706L59.127,268.585L55.836,269.065L52.546,268.851L49.255,269.104L45.956,269.098L42.665,269.074L39.375,269.556Z" id="Africa" style="fill: rgb(204, 204, 204); opacity: 0.5;"/><path d="M39.375,269.556L42.665,269.074L45.956,269.098L49.255,269.104L52.546,268.851L55.836,269.065L59.127,268.585L62.426,268.706L65.717,268.629L69.007,268.49L72.297,269.247L75.597,268.724L78.887,268.924L82.178,268.878L85.468,268.786L88.768,268.677L92.058,268.458L95.349,268.492L98.639,268.504L101.938,268.11L105.229,267.68L108.519,268.106L111.81,267.13L115.109,267.366L118.4,266.898L121.69,266.349L124.981,266.388L128.28,266.684L131.57,266.485L134.861,266.584L138.151,265.352L141.451,265.227L144.741,264.359L148.032,264.586L151.322,263.879L154.622,263.788L157.912,264.163L161.202,263.486L164.493,263.615L167.792,262.912L171.083,262.059L174.373,261.25L177.664,261.45L180.963,260.879L184.254,260.517L187.544,260.156L190.834,260.364L194.134,259.505L197.424,259.373L200.715,258.759L204.005,257.674L207.296,257.672L210.586,257.196L213.877,256.868L217.167,256.315L220.466,255.439L223.757,255.083L227.047,254.562L230.338,253.948L233.637,253.354L236.928,253.799L240.218,253.479L243.509,253.42L246.808,253.143L250.098,254.012L253.389,254.235L256.679,253.695L259.979,253.665L263.269,254.432L266.56,255.515L269.85,253.199L273.15,252.86L276.44,251.819L279.73,251.459L283.021,249.995L286.32,250.181L289.611,251.056L292.901,248.547L296.192,248.758L299.491,247.947L302.782,247.922L306.072,247.954L309.362,248.164L312.662,247.655L315.952,246.498L319.243,246.022L322.533,244.998L325.833,243.779L329.123,243.379L332.414,243.205L335.704,242.255L339.003,241.285L342.294,241.731L345.584,241.578L348.875,241.824L352.174,245.006L355.465,242.825L358.755,241.011L362.046,239.997L365.345,238.956L368.635,235.181L371.926,232.336L375.216,230.922L378.516,229.476L381.806,227.202L385.097,224.343L388.387,221.774L391.687,219.982L394.977,219.687L398.267,215.85L401.558,216.901L404.857,215.855L408.148,217.29L411.438,216.1L414.729,214.824L418.028,214.53L421.319,213.761L424.609,211.93L427.899,211.52L431.199,209.704L434.489,205.855L437.78,206.101L441.07,204.472L444.37,202.167L447.66,201.59L450.951,200.823L454.241,197.562L457.541,196.051L460.831,195.202L464.121,193.801L467.412,191.851L470.711,194.277L474.002,194.563L477.292,193.249L480.583,191.214L483.882,190.408L487.173,190.151L490.463,189.233L493.753,188.507L497.053,188.388L500.343,186.25L503.634,186.964L506.924,189.164L510.224,190.654L513.514,188.52L516.805,188.51L520.095,185.258L523.394,186.888L526.685,185.183L529.975,185.522L533.266,186.017L536.565,186.51L539.856,185.292L543.146,177.859L546.437,179.607L549.736,181.028L553.026,179.612L556.317,179.244L559.607,177.83L562.907,180.168L566.197,175.796L569.488,175.704L572.778,172.806L576.078,175.37L579.368,176.318L582.658,176.363L585.949,176.869L589.248,176.102L592.539,176.626L595.829,177.748L599.12,182.411L602.419,177.758L605.71,177.095L609,177.194L609,149.611L605.71,148.706L602.419,149.64L599.12,155.967L595.829,148.661L592.539,147.121L589.248,147.293L585.949,148.109L582.658,147.125L579.368,146.192L576.078,145.874L572.778,143.673L569.488,145.904L566.197,145.085L562.907,150.569L559.607,145.691L556.317,146.368L553.026,147.089L549.736,147.851L546.437,146.782L543.146,145.222L539.856,153.256L536.565,154.44L533.266,152.942L529.975,153.29L526.685,153.439L523.394,155.376L520.095,154.147L516.805,158.266L513.514,158.165L510.224,160.962L506.924,159.926L503.634,158.242L500.343,157.204L497.053,159.228L493.753,159.739L490.463,161.571L487.173,163.35L483.882,163.347L480.583,163.968L477.292,167.169L474.002,168.318L470.711,166.795L467.412,163.842L464.121,164.996L460.831,166.797L457.541,167.584L454.241,170.009L450.951,174.643L447.66,174.723L444.37,174.422L441.07,177.586L437.78,180.242L434.489,179.978L431.199,185.02L427.899,186.805L424.609,188.848L421.319,192.855L418.028,194.454L414.729,195.409L411.438,197.267L408.148,198.974L404.857,198.523L401.558,199.181L398.267,198.474L394.977,202.575L391.687,202.384L388.387,203.953L385.097,207.107L381.806,211.041L378.516,212.688L375.216,214.296L371.926,215.058L368.635,218.019L365.345,223.273L362.046,221.982L358.755,223.473L355.465,226.533L352.174,228.175L348.875,224.578L345.584,225.262L342.294,225.822L339.003,226.121L335.704,227.992L332.414,230.2L329.123,231.076L325.833,229.968L322.533,231.466L319.243,233.651L315.952,234.242L312.662,235.866L309.362,236.785L306.072,235.156L302.782,233.862L299.491,232.559L296.192,233.859L292.901,233.63L289.611,235.688L286.32,235.497L283.021,235.779L279.73,236.126L276.44,238.776L273.15,239.752L269.85,238.724L266.56,242.253L263.269,239.818L259.979,239.427L256.679,240.171L253.389,241.406L250.098,241.16L246.808,239.574L243.509,240.228L240.218,240.44L236.928,240.663L233.637,240.523L230.338,241.642L227.047,241.482L223.757,242.817L220.466,243.367L217.167,244.744L213.877,245.284L210.586,246.087L207.296,246.741L204.005,246.89L200.715,247.808L197.424,248.949L194.134,249.377L190.834,250.339L187.544,250.207L184.254,250.742L180.963,250.963L177.664,251.787L174.373,251.633L171.083,252.66L167.792,254.232L164.493,254.637L161.202,254.81L157.912,255.71L154.622,255.352L151.322,255.496L148.032,256.243L144.741,256.253L141.451,257.334L138.151,257.208L134.861,258.184L131.57,258.417L128.28,258.854L124.981,258.806L121.69,258.912L118.4,259.624L115.109,260.268L111.81,260.376L108.519,261.689L105.229,261.769L101.938,263.191L98.639,263.599L95.349,263.622L92.058,263.636L88.768,263.921L85.468,263.92L82.178,263.952L78.887,264.046L75.597,263.883L72.297,264.158L69.007,263.124L65.717,263.471L62.426,263.698L59.127,263.641L55.836,264.263L52.546,264.112L49.255,264.534L45.956,264.561L42.665,264.755L39.375,265.491Z" id="USA" style="fill: rgb(244, 193, 0); opacity: 0.5;"/><path d="M39.375,265.491L42.665,264.755L45.956,264.561L49.255,264.534L52.546,264.112L55.836,264.263L59.127,263.641L62.426,263.698L65.717,263.471L69.007,263.124L72.297,264.158L75.597,263.883L78.887,264.046L82.178,263.952L85.468,263.92L88.768,263.921L92.058,263.636L95.349,263.622L98.639,263.599L101.938,263.191L105.229,261.769L108.519,261.689L111.81,260.376L115.109,260.268L118.4,259.624L121.69,258.912L124.981,258.806L128.28,258.854L131.57,258.417L134.861,258.184L138.151,257.208L141.451,257.334L144.741,256.253L148.032,256.243L151.322,255.496L154.622,255.352L157.912,255.71L161.202,254.81L164.493,254.637L167.792,254.232L171.083,252.66L174.373,251.633L177.664,251.787L180.963,250.963L184.254,250.742L187.544,250.207L190.834,250.339L194.134,249.377L197.424,248.949L200.715,247.808L204.005,246.89L207.296,246.741L210.586,246.087L213.877,245.284L217.167,244.744L220.466,243.367L223.757,242.817L227.047,241.482L230.338,241.642L233.637,240.523L236.928,240.663L240.218,240.44L243.509,240.228L246.808,239.574L250.098,241.16L253.389,241.406L256.679,240.171L259.979,239.427L263.269,239.818L266.56,242.253L269.85,238.724L273.15,239.752L276.44,238.776L279.73,236.126L283.021,235.779L286.32,235.497L289.611,235.688L292.901,233.63L296.192,233.859L299.491,232.559L302.782,233.862L306.072,235.156L309.362,236.785L312.662,235.866L315.952,234.242L319.243,233.651L322.533,231.466L325.833,229.968L329.123,231.076L332.414,230.2L335.704,227.992L339.003,226.121L342.294,225.822L345.584,225.262L348.875,224.578L352.174,228.175L355.465,226.533L358.755,223.473L362.046,221.982L365.345,223.273L368.635,218.019L371.926,215.058L375.216,214.296L378.516,212.688L381.806,211.041L385.097,207.107L388.387,203.953L391.687,202.384L394.977,202.575L398.267,198.474L401.558,199.181L404.857,198.523L408.148,198.974L411.438,197.267L414.729,195.409L418.028,194.454L421.319,192.855L424.609,188.848L427.899,186.805L431.199,185.02L434.489,179.978L437.78,180.242L441.07,177.586L444.37,174.422L447.66,174.723L450.951,174.643L454.241,170.009L457.541,167.584L460.831,166.797L464.121,164.996L467.412,163.842L470.711,166.795L474.002,168.318L477.292,167.169L480.583,163.968L483.882,163.347L487.173,163.35L490.463,161.571L493.753,159.739L497.053,159.228L500.343,157.204L503.634,158.242L506.924,159.926L510.224,160.962L513.514,158.165L516.805,158.266L520.095,154.147L523.394,155.376L526.685,153.439L529.975,153.29L533.266,152.942L536.565,154.44L539.856,153.256L543.146,145.222L546.437,146.782L549.736,147.851L553.026,147.089L556.317,146.368L559.607,145.691L562.907,150.569L566.197,145.085L569.488,145.904L572.778,143.673L576.078,145.874L579.368,146.192L582.658,147.125L585.949,148.109L589.248,147.293L592.539,147.121L595.829,148.661L599.12,155.967L602.419,149.64L605.71,148.706L609,149.611L609,94.295L605.71,93.942L602.419,95.871L599.12,103.17L595.829,92.73L592.539,92.926L589.248,93.519L585.949,95.122L582.658,91.191L579.368,91.915L576.078,94.353L572.778,92.165L569.488,95.914L566.197,97.171L562.907,104.115L559.607,101.318L556.317,102.927L553.026,101.77L549.736,106.127L546.437,105.621L543.146,105.61L539.856,113.845L536.565,116.628L533.266,114.993L529.975,115.472L526.685,116.802L523.394,110.681L520.095,117.763L516.805,123.413L513.514,123.225L510.224,127.591L506.924,126.615L503.634,124.265L500.343,125.747L497.053,127.502L493.753,128.291L490.463,130.895L487.173,132.132L483.882,134.438L480.583,135.849L477.292,142.712L474.002,144.239L470.711,142.459L467.412,139.09L464.121,139.949L460.831,141.965L457.541,143.065L454.241,145.76L450.951,151.25L447.66,151.537L444.37,151.016L441.07,155.337L437.78,158.534L434.489,159.274L431.199,164.226L427.899,169.022L424.609,171.903L421.319,176.238L418.028,178.553L414.729,179.564L411.438,181.655L408.148,183.746L404.857,184.06L401.558,184.983L398.267,183.406L394.977,188.016L391.687,188.464L388.387,190.768L385.097,194.549L381.806,199.272L378.516,201.544L375.216,203.675L371.926,205.016L368.635,208.447L365.345,214.169L362.046,212.965L358.755,214.495L355.465,217.869L352.174,219.945L348.875,216.185L345.584,216.933L342.294,217.678L339.003,217.923L335.704,219.876L332.414,222.347L329.123,223.302L325.833,222.364L322.533,224.26L319.243,226.504L315.952,227.145L312.662,228.915L309.362,230.102L306.072,228.573L302.782,227.23L299.491,226.183L296.192,227.641L292.901,227.489L289.611,229.603L286.32,229.409L283.021,229.681L279.73,229.996L276.44,232.852L273.15,233.659L269.85,232.566L266.56,235.893L263.269,233.303L259.979,233.02L256.679,233.969L253.389,235.116L250.098,234.842L246.808,233.513L243.509,234.083L240.218,234.314L236.928,234.924L233.637,234.681L230.338,235.87L227.047,235.732L223.757,237.122L220.466,237.775L217.167,239.288L213.877,239.911L210.586,240.751L207.296,241.451L204.005,241.896L200.715,242.697L197.424,244.007L194.134,244.301L190.834,245.481L187.544,245.467L184.254,245.955L180.963,246.332L177.664,247.216L174.373,247.023L171.083,248.402L167.792,250.226L164.493,250.786L161.202,250.908L157.912,251.826L154.622,251.536L151.322,251.701L148.032,252.462L144.741,252.474L141.451,253.652L138.151,253.79L134.861,254.792L131.57,255.125L128.28,255.668L124.981,255.339L121.69,255.543L118.4,256.324L115.109,257.083L111.81,257.082L108.519,258.441L105.229,258.71L101.938,259.993L98.639,260.454L95.349,260.461L92.058,260.539L88.768,260.868L85.468,260.896L82.178,260.775L78.887,260.802L75.597,260.808L72.297,260.983L69.007,260.038L65.717,260.507L62.426,260.65L59.127,260.659L55.836,261.251L52.546,261.152L49.255,261.547L45.956,261.806L42.665,262.128L39.375,263.032Z" id="Asia" style="fill: rgb(0, 73, 255); opacity: 0.5;"/><path d="M39.375,263.032L42.665,262.128L45.956,261.806L49.255,261.547L52.546,261.152L55.836,261.251L59.127,260.659L62.426,260.65L65.717,260.507L69.007,260.038L72.297,260.983L75.597,260.808L78.887,260.802L82.178,260.775L85.468,260.896L88.768,260.868L92.058,260.539L95.349,260.461L98.639,260.454L101.938,259.993L105.229,258.71L108.519,258.441L111.81,257.082L115.109,257.083L118.4,256.324L121.69,255.543L124.981,255.339L128.28,255.668L131.57,255.125L134.861,254.792L138.151,253.79L141.451,253.652L144.741,252.474L148.032,252.462L151.322,251.701L154.622,251.536L157.912,251.826L161.202,250.908L164.493,250.786L167.792,250.226L171.083,248.402L174.373,247.023L177.664,247.216L180.963,246.332L184.254,245.955L187.544,245.467L190.834,245.481L194.134,244.301L197.424,244.007L200.715,242.697L204.005,241.896L207.296,241.451L210.586,240.751L213.877,239.911L217.167,239.288L220.466,237.775L223.757,237.122L227.047,235.732L230.338,235.87L233.637,234.681L236.928,234.924L240.218,234.314L243.509,234.083L246.808,233.513L250.098,234.842L253.389,235.116L256.679,233.969L259.979,233.02L263.269,233.303L266.56,235.893L269.85,232.566L273.15,233.659L276.44,232.852L279.73,229.996L283.021,229.681L286.32,229.409L289.611,229.603L292.901,227.489L296.192,227.641L299.491,226.183L302.782,227.23L306.072,228.573L309.362,230.102L312.662,228.915L315.952,227.145L319.243,226.504L322.533,224.26L325.833,222.364L329.123,223.302L332.414,222.347L335.704,219.876L339.003,217.923L342.294,217.678L345.584,216.933L348.875,216.185L352.174,219.945L355.465,217.869L358.755,214.495L362.046,212.965L365.345,214.169L368.635,208.447L371.926,205.016L375.216,203.675L378.516,201.544L381.806,199.272L385.097,194.549L388.387,190.768L391.687,188.464L394.977,188.016L398.267,183.406L401.558,184.983L404.857,184.06L408.148,183.746L411.438,181.655L414.729,179.564L418.028,178.553L421.319,176.238L424.609,171.903L427.899,169.022L431.199,164.226L434.489,159.274L437.78,158.534L441.07,155.337L444.37,151.016L447.66,151.537L450.951,151.25L454.241,145.76L457.541,143.065L460.831,141.965L464.121,139.949L467.412,139.09L470.711,142.459L474.002,144.239L477.292,142.712L480.583,135.849L483.882,134.438L487.173,132.132L490.463,130.895L493.753,128.291L497.053,127.502L500.343,125.747L503.634,124.265L506.924,126.615L510.224,127.591L513.514,123.225L516.805,123.413L520.095,117.763L523.394,110.681L526.685,116.802L529.975,115.472L533.266,114.993L536.565,116.628L539.856,113.845L543.146,105.61L546.437,105.621L549.736,106.127L553.026,101.77L556.317,102.927L559.607,101.318L562.907,104.115L566.197,97.171L569.488,95.914L572.778,92.165L576.078,94.353L579.368,91.915L582.658,91.191L585.949,95.122L589.248,93.519L592.539,92.926L595.829,92.73L599.12,103.17L602.419,95.871L605.71,93.942L609,94.295L609,28.932L605.71,31.223L602.419,33.041L599.12,43.083L595.829,33.706L592.539,35.467L589.248,37.669L585.949,40.421L582.658,35.356L579.368,35.753L576.078,38.313L572.778,37.019L569.488,41.695L566.197,47.723L562.907,58.126L559.607,57.306L556.317,61.456L553.026,62.692L549.736,70.248L546.437,73.13L543.146,75.399L539.856,87.341L536.565,91.741L533.266,90.157L529.975,90.518L526.685,92.564L523.394,85.822L520.095,92.713L516.805,99.212L513.514,100.307L510.224,106.086L506.924,105.838L503.634,104.118L500.343,106.05L497.053,108.082L493.753,109.303L490.463,112.913L487.173,114.991L483.882,117.906L480.583,119.864L477.292,127.496L474.002,129.518L470.711,128.349L467.412,124.711L464.121,125.408L460.831,125.63L457.541,128.196L454.241,133.191L450.951,138.452L447.66,139.229L444.37,138.781L441.07,143.008L437.78,148.423L434.489,148.486L431.199,153.941L427.899,161.326L424.609,164.772L421.319,167.897L418.028,169.788L414.729,171.921L411.438,173.773L408.148,176.21L404.857,176.068L401.558,177.213L398.267,175.575L394.977,181.311L391.687,182.459L388.387,184.835L385.097,188.257L381.806,192.932L378.516,196.028L375.216,197.934L371.926,198.435L368.635,202.75L365.345,209.539L362.046,208.499L358.755,209.965L355.465,213.378L352.174,215.466L348.875,211.535L345.584,212.357L342.294,213.115L339.003,213.53L335.704,215.7L332.414,218.444L329.123,219.575L325.833,218.612L322.533,220.591L319.243,222.902L315.952,223.633L312.662,225.517L309.362,226.83L306.072,225.427L302.782,224.182L299.491,223.252L296.192,224.696L292.901,224.597L289.611,226.703L286.32,226.526L283.021,226.827L279.73,227.107L276.44,230.042L273.15,230.827L269.85,229.731L266.56,232.997L263.269,230.389L259.979,230.175L256.679,231.2L253.389,232.389L250.098,232.124L246.808,230.892L243.509,231.584L240.218,231.8L236.928,232.517L233.637,232.398L230.338,233.596L227.047,233.501L223.757,235.009L220.466,235.732L217.167,237.26L213.877,237.856L210.586,238.772L207.296,239.551L204.005,240.079L200.715,240.95L197.424,242.271L194.134,242.585L190.834,243.789L187.544,243.811L184.254,244.351L180.963,244.761L177.664,245.605L174.373,245.457L171.083,246.836L167.792,248.773L164.493,249.363L161.202,249.451L157.912,250.468L154.622,250.207L151.322,250.301L148.032,251.139L144.741,251.155L141.451,252.325L138.151,252.544L134.861,253.642L131.57,253.951L128.28,254.514L124.981,254.202L121.69,254.445L118.4,255.21L115.109,256.007L111.81,255.963L108.519,257.288L105.229,257.611L101.938,258.871L98.639,259.279L95.349,259.229L92.058,259.24L88.768,259.529L85.468,259.473L82.178,259.252L78.887,259.26L75.597,259.199L72.297,259.256L69.007,258.243L65.717,258.67L62.426,258.834L59.127,258.8L55.836,259.357L52.546,259.251L49.255,259.54L45.956,259.857L42.665,260.118L39.375,261.008Z" id="China" style="fill: rgb(250, 100, 0); opacity: 0.5;"/></g><g id="area-separator-lines-svg"/><g id="x-grid-svg"><g id="x-tick-labels-svg date-axis-svg grid-x-svg datawrapper-lg30Q-p0ujoi-svg svelte-qac4x9-svg" transform="translate(0, 285.75)"><text transform="translate(72.29745, 14) translate(-14.20313, 0) translate(14.203125, 0)" style="text-anchor: middle;"><tspan fill="rgb(123, 123, 123)" style="font-family: Knowledge; font-weight: 300; font-stretch: 100%; font-size: 14px;" x="0" dominant-baseline="auto" y="0">1860</tspan></text><text transform="translate(138.15136, 14) translate(-14.27344, 0) translate(14.2734375, 0)" style="text-anchor: middle;"><tspan fill="rgb(123, 123, 123)" style="font-family: Knowledge; font-weight: 300; font-stretch: 100%; font-size: 14px;" x="0" dominant-baseline="auto" y="0">1880</tspan></text><text transform="translate(204.00522, 14) translate(-14.4375, 0) translate(14.4375, 0)" style="text-anchor: middle;"><tspan fill="rgb(123, 123, 123)" style="font-family: Knowledge; font-weight: 300; font-stretch: 100%; font-size: 14px;" x="0" dominant-baseline="auto" y="0">1900</tspan></text><text transform="translate(269.85012, 14) translate(-13.9375, 0) translate(13.9375, 0)" style="text-anchor: middle;"><tspan fill="rgb(123, 123, 123)" style="font-family: Knowledge; font-weight: 300; font-stretch: 100%; font-size: 14px;" x="0" dominant-baseline="auto" y="0">1920</tspan></text><text transform="translate(335.70403, 14) translate(-14.10938, 0) translate(14.109375, 0)" style="text-anchor: middle;"><tspan fill="rgb(123, 123, 123)" style="font-family: Knowledge; font-weight: 300; font-stretch: 100%; font-size: 14px;" x="0" dominant-baseline="auto" y="0">1940</tspan></text><text transform="translate(401.55793, 14) translate(-14.14063, 0) translate(14.140625, 0)" style="text-anchor: middle;"><tspan fill="rgb(123, 123, 123)" style="font-family: Knowledge; font-weight: 300; font-stretch: 100%; font-size: 14px;" x="0" dominant-baseline="auto" y="0">1960</tspan></text><text transform="translate(467.41184, 14) translate(-14.20313, 0) translate(14.203125, 0)" style="text-anchor: middle;"><tspan fill="rgb(123, 123, 123)" style="font-family: Knowledge; font-weight: 300; font-stretch: 100%; font-size: 14px;" x="0" dominant-baseline="auto" y="0">1980</tspan></text><text transform="translate(533.26575, 14) translate(-16.14063, 0) translate(16.140625, 0)" style="text-anchor: middle;"><tspan fill="rgb(123, 123, 123)" style="font-family: Knowledge; font-weight: 300; font-stretch: 100%; font-size: 14px;" x="0" dominant-baseline="auto" y="0">2000</tspan></text><text transform="translate(599.11966, 14) translate(-15.67188, 0) translate(15.671875, 0)" style="text-anchor: middle;"><tspan fill="rgb(123, 123, 123)" style="font-family: Knowledge; font-weight: 300; font-stretch: 100%; font-size: 14px;" x="0" dominant-baseline="auto" y="0">2020</tspan></text><g id="highlighted-ticks-svg"/></g></g><g id="y-grid-svg"><g id="y-tick-labels-svg number-axis-svg grid-y-svg datawrapper-lg30Q-1lkyzg8-svg"><text transform="translate(0, 275.75) translate(0, 0)"><tspan fill="rgb(166, 166, 166)" style="font-family: Knowledge; font-weight: 300; font-stretch: 100%; font-size: 14px;" x="0" dominant-baseline="auto" y="0">0</tspan></text><text transform="translate(0, 228.95833) translate(0, 0)"><tspan fill="rgb(166, 166, 166)" style="font-family: Knowledge; font-weight: 300; font-stretch: 100%; font-size: 14px;" x="0" dominant-baseline="auto" y="0">10B</tspan></text><text transform="translate(0, 182.16667) translate(0, 0)"><tspan fill="rgb(166, 166, 166)" style="font-family: Knowledge; font-weight: 300; font-stretch: 100%; font-size: 14px;" x="0" dominant-baseline="auto" y="0">20B</tspan></text><text transform="translate(0, 135.375) translate(0, 0)"><tspan fill="rgb(166, 166, 166)" style="font-family: Knowledge; font-weight: 300; font-stretch: 100%; font-size: 14px;" x="0" dominant-baseline="auto" y="0">30B</tspan></text><text transform="translate(0, 88.58333) translate(0, 0)"><tspan fill="rgb(166, 166, 166)" style="font-family: Knowledge; font-weight: 300; font-stretch: 100%; font-size: 14px;" x="0" dominant-baseline="auto" y="0">40B</tspan></text><text transform="translate(0, 41.79167) translate(0, 0)"><tspan fill="rgb(166, 166, 166)" style="font-family: Knowledge; font-weight: 300; font-stretch: 100%; font-size: 14px;" x="0" dominant-baseline="auto" y="0">50B</tspan></text><text transform="translate(0, -5) translate(0, 0)"><tspan fill="rgb(166, 166, 166)" style="font-family: Knowledge; font-weight: 300; font-stretch: 100%; font-size: 14px;" x="0" dominant-baseline="auto" y="0">60B</tspan></text></g><g id="y-base-lines-svg grid-y-svg datawrapper-lg30Q-1x7bfpw-svg"><line x1="619" x2="0" y1="0" y2="0" transform="translate(0, 280.75)" style="fill: none; stroke-width: 1; stroke-linejoin: miter; stroke-linecap: square; stroke: rgb(64, 64, 64);"/></g></g></g></g><circle r="4" cx="4" cy="48.875" style="fill: rgb(204, 204, 204); fill-opacity: 0.5;"/><text transform="translate(11, 39.875)"><tspan fill="rgb(64,64,64)" x="0" y="16" style="font-family: Knowledge; font-weight: 300; font-stretch: 100%; font-size: 16px;">Africa</tspan></text><circle r="4" cx="62.6875" cy="48.875" style="fill: rgb(0, 73, 255); fill-opacity: 0.5;"/><text transform="translate(69.6875, 39.875)"><tspan fill="rgb(64,64,64)" x="0" y="16" style="font-family: Knowledge; font-weight: 300; font-stretch: 100%; font-size: 16px;">Asia</tspan></text><circle r="4" cx="111.5" cy="48.875" style="fill: rgb(250, 100, 0); fill-opacity: 0.5;"/><text transform="translate(118.5, 39.875)"><tspan fill="rgb(64,64,64)" x="0" y="16" style="font-family: Knowledge; font-weight: 300; font-stretch: 100%; font-size: 16px;">China</tspan></text><circle r="4" cx="170.390625" cy="48.875" style="fill: rgb(78, 199, 255); fill-opacity: 0.5;"/><text transform="translate(177.390625, 39.875)"><tspan fill="rgb(64,64,64)" x="0" y="16" style="font-family: Knowledge; font-weight: 300; font-stretch: 100%; font-size: 16px;">Rest</tspan></text><text transform="translate(210.328125, 39.875)"><tspan fill="rgb(64,64,64)" x="0" y="16" style="font-family: Knowledge; font-weight: 300; font-stretch: 100%; font-size: 16px;">of Europe</tspan></text><circle r="4" cx="287.203125" cy="48.875" style="fill: rgb(238, 102, 91); fill-opacity: 0.5;"/><text transform="translate(294.203125, 39.875)"><tspan fill="rgb(64,64,64)" x="0" y="16" style="font-family: Knowledge; font-weight: 300; font-stretch: 100%; font-size: 16px;">EU</tspan></text><circle r="4" cx="327.703125" cy="48.875" style="fill: rgb(10, 66, 134); fill-opacity: 0.5;"/><text transform="translate(334.703125, 39.875)"><tspan fill="rgb(64,64,64)" x="0" y="16" style="font-family: Knowledge; font-weight: 300; font-stretch: 100%; font-size: 16px;">India</tspan></text><circle r="4" cx="381" cy="48.875" style="fill: rgb(64, 147, 178); fill-opacity: 0.5;"/><text transform="translate(388, 39.875)"><tspan fill="rgb(64,64,64)" x="0" y="16" style="font-family: Knowledge; font-weight: 300; font-stretch: 100%; font-size: 16px;">North</tspan></text><text transform="translate(429.625, 39.875)"><tspan fill="rgb(64,64,64)" x="0" y="16" style="font-family: Knowledge; font-weight: 300; font-stretch: 100%; font-size: 16px;">Am ex-US</tspan></text><circle r="4" cx="509.875" cy="48.875" style="fill: rgb(102, 102, 102); fill-opacity: 0.5;"/><text transform="translate(516.875, 39.875)"><tspan fill="rgb(64,64,64)" x="0" y="16" style="font-family: Knowledge; font-weight: 300; font-stretch: 100%; font-size: 16px;">Oceania</tspan></text><circle r="4" cx="584.265625" cy="48.875" style="fill: rgb(49, 130, 189); fill-opacity: 0.5;"/><text transform="translate(591.265625, 39.875)"><tspan fill="rgb(64,64,64)" x="0" y="16" style="font-family: Knowledge; font-weight: 300; font-stretch: 100%; font-size: 16px;">S.</tspan></text><text transform="translate(0, 66)"><tspan fill="rgb(64,64,64)" x="0" y="16" style="font-family: Knowledge; font-weight: 300; font-stretch: 100%; font-size: 16px;">America</tspan></text><circle r="4" cx="67.96875" cy="75" style="fill: rgb(244, 193, 0); fill-opacity: 0.5;"/><text transform="translate(74.96875, 66)"><tspan fill="rgb(64,64,64)" x="0" y="16" style="font-family: Knowledge; font-weight: 300; font-stretch: 100%; font-size: 16px;">USA</tspan></text><g id="tooltip-layer-svg" transform="translate(0, 97)"><g id="group-svg" transform="translate(0.5, 18)"/></g></g></g></g><g id="container-svg container-footer-svg datawrapper-lg30Q-ruz66u-svg"><g id="container-svg container-footerLeft-svg datawrapper-lg30Q-1la8dcw-svg"><text transform="translate(0, 438.859375)"><tspan fill="rgb(102,102,102)" x="0" y="13" style="font-family: Knowledge; font-weight: 300; font-stretch: 100%; font-size: 13px;">Note: Greenhouse gas emissions, all sources, bln tonnes of CO2 equivalent</tspan></text><text transform="translate(0, 460.75)"><tspan fill="rgb(102,102,102)" x="0" y="14" style="font-family: Knowledge; font-weight: 300; font-stretch: 100%; font-size: 14px;">Source: Our World In Data | P. Thal Larsen | September 29, 2025</tspan></text></g><g id="container-svg container-footerRight-svg datawrapper-lg30Q-zhyip6-svg"><g id="image"><svg xmlns="http://www.w3.org/2000/svg" version="1.1" viewBox="0 0 3883.1 846" width="179" height="39" x="441" y="437">
  <defs>
    <style>
      .cls-1 {
        fill: #d64000;
      }

      .cls-2 {
        fill: #212223;
      }

      .cls-3 {
        fill: #212223;
      }
    </style>
  </defs>
  <!-- Generator: Adobe Illustrator 28.6.0, SVG Export Plug-In . SVG Version: 1.2.0 Build 709)  -->
  <g>
    <g id="Layer_1">
      <g>
        <g>
          <path class="cls-1" d="M537.3,262.7c5.6,5.6,8.7,13,8.7,20.9s-3.1,15.4-8.7,20.9c-11.5,11.5-30.3,11.5-41.8,0-5.6-5.6-8.7-13-8.7-20.9s3.1-15.4,8.7-20.9c5.8-5.8,13.3-8.7,20.9-8.7s15.2,2.9,20.9,8.7Z"/>
          <path class="cls-1" d="M217.4,583.2c-11.5-11.5-11.5-30.3,0-41.9,5.6-5.6,13-8.7,20.9-8.7s15.3,3.1,20.9,8.7c11.5,11.5,11.5,30.3,0,41.9-5.6,5.6-13,8.7-20.9,8.7s-15.3-3.1-20.9-8.7Z"/>
          <path class="cls-1" d="M442.8,265h-.2c-6.3-2.7-11.2-7.7-13.8-14-2.7-6.4-2.7-13.4,0-19.8,2.7-6.4,7.6-11.4,14-14,3.2-1.3,6.6-2,9.9-2s6.7.7,9.9,2c13.2,5.5,19.5,20.6,14,33.9-5.5,13.2-20.6,19.5-33.8,14Z"/>
          <path class="cls-1" d="M302.1,579c3.4,0,6.7.7,9.9,2,13.2,5.5,19.5,20.6,14,33.9-2.7,6.4-7.6,11.4-14,14-6.4,2.7-13.4,2.7-19.8,0-13.2-5.5-19.5-20.6-14-33.9,2.7-6.4,7.6-11.4,14-14,3.2-1.3,6.6-2,9.9-2h0Z"/>
          <path class="cls-1" d="M399.5,226.1c0,11.9-9.4,21.7-21.2,22.2h-1c-12.2,0-22.2-10-22.2-22.2s10-22.2,22.2-22.2,22.2,10,22.2,22.2h0Z"/>
          <path class="cls-1" d="M355.1,619.9c0-12.3,10-22.2,22.2-22.2s22.2,10,22.2,22.2-10,22.2-22.2,22.2-22.2-10-22.2-22.2Z"/>
          <path class="cls-1" d="M309.2,258.2c-4.6,1.9-9.6,1.9-14.2,0-4.6-1.9-8.1-5.5-10-10-3.9-9.5.6-20.3,10-24.2,2.3-1,4.7-1.4,7-1.4,7.3,0,14.2,4.3,17.1,11.5,1.9,4.6,1.9,9.6,0,14.2-1.9,4.6-5.4,8.2-10,10Z"/>
          <path class="cls-1" d="M445.5,587.8c2.3-1,4.7-1.4,7.1-1.4s4.8.5,7.1,1.4c4.6,1.9,8.1,5.5,10,10,1.9,4.6,1.9,9.6,0,14.2-1.9,4.6-5.4,8.2-10,10-4.6,1.9-9.6,1.9-14.2,0-4.6-1.9-8.1-5.4-10-10-1.9-4.6-1.9-9.6,0-14.2,1.9-4.6,5.4-8.1,10-10Z"/>
          <path class="cls-1" d="M248.7,273.4c5.7,5.7,5.8,14.9.3,20.7l-.3.3c-5.8,5.8-15.2,5.8-21,0-5.8-5.8-5.8-15.2,0-21,2.9-2.9,6.7-4.3,10.5-4.3s7.6,1.4,10.5,4.3h0Z"/>
          <path class="cls-1" d="M505.8,551.7c2.9-2.9,6.7-4.3,10.5-4.3s7.6,1.4,10.5,4.3c2.8,2.8,4.3,6.5,4.3,10.5s-1.5,7.7-4.3,10.5c-5.8,5.8-15.2,5.8-21,0-2.8-2.8-4.3-6.6-4.3-10.5s1.5-7.7,4.3-10.5h0Z"/>
          <path class="cls-1" d="M188.6,364.7c-9.4-3.9-13.9-14.8-10-24.2,1.9-4.6,5.4-8.2,10-10,2.3-.9,4.7-1.4,7.1-1.4s4.8.5,7.1,1.4c9.4,3.9,13.9,14.8,10,24.2-1.9,4.6-5.4,8.2-10,10-4.6,1.9-9.6,1.9-14.2,0h0Z"/>
          <path class="cls-1" d="M566.2,481.3c4.6,1.9,8.1,5.4,10,10,1.9,4.6,1.9,9.6,0,14.2-3.9,9.4-14.7,13.9-24.2,10-4.6-1.9-8.1-5.4-10-10-1.9-4.6-1.9-9.6,0-14.2,2.9-7.1,9.8-11.4,17.1-11.4s4.7.5,7,1.4Z"/>
          <path class="cls-1" d="M158.5,423.1c0-12.3,10-22.2,22.2-22.2s22.2,10,22.2,22.2-10,22.2-22.2,22.2-22.2-10-22.2-22.2Z"/>
          <path class="cls-1" d="M551.9,423.1c0-12.3,10-22.2,22.2-22.2s22.2,10,22.2,22.2-10,22.2-22.2,22.2-22.2-10-22.2-22.2Z"/>
          <path class="cls-1" d="M171.6,508.3c-5.5-13.2.8-28.4,14-33.9,6.4-2.7,13.4-2.7,19.8,0,6.4,2.7,11.4,7.6,14,14,2.7,6.4,2.7,13.4,0,19.8-2.7,6.4-7.6,11.4-14,14-6.4,2.7-13.4,2.7-19.8,0-6.4-2.7-11.4-7.6-14-14Z"/>
          <path class="cls-1" d="M535.1,357.5c-2.6-6.4-2.6-13.4,0-19.8,2.7-6.4,7.6-11.4,14-14,3.2-1.4,6.6-2,9.8-2,10.2,0,19.8,6,23.9,16,5.5,13.2-.8,28.4-14,33.9-6.4,2.7-13.4,2.7-19.8,0-6.4-2.7-11.4-7.6-14-14h0Z"/>
          <path class="cls-1" d="M440.3,486c-8.1,8.1-8.1,21.3,0,29.4,8.1,8.1,21.3,8.1,29.4,0,3.9-3.9,6.1-9.1,6.1-14.7s-2.2-10.8-6.1-14.7c-4-4-9.4-6.1-14.7-6.1s-10.7,2-14.7,6h0Z"/>
          <path class="cls-1" d="M266.9,410.4c-8.8-2.3-14-11.4-11.6-20.2,1.2-4.3,3.9-7.8,7.7-10,2.5-1.5,5.3-2.2,8.2-2.2s2.9.2,4.3.5c4.2,1.2,7.8,3.9,10,7.7,2.2,3.8,2.8,8.3,1.6,12.5-2.3,8.8-11.4,14-20.2,11.7h0Z"/>
          <path class="cls-1" d="M479.2,467.4c-4.2-1.2-7.8-3.9-10-7.7-2.2-3.8-2.8-8.3-1.6-12.5,1.2-4.3,3.9-7.8,7.7-10,2.5-1.5,5.4-2.2,8.2-2.2s2.4.1,3.5.4l.8.2c8.8,2.3,14,11.4,11.6,20.2-1.2,4.3-3.9,7.8-7.7,10-3.8,2.2-8.3,2.8-12.5,1.6h0Z"/>
          <path class="cls-1" d="M258.5,454.9c-1.8-6.8,2-13.8,8.6-16l.8-.2c7-1.9,14.3,2.3,16.1,9.3.9,3.4.5,7-1.3,10-1.8,3-4.6,5.2-8,6.2-3.4.9-6.9.5-10-1.3-3-1.8-5.2-4.6-6.2-8h0Z"/>
          <path class="cls-1" d="M476.8,406.1l-.6-.3c-2.7-1.8-4.7-4.5-5.5-7.7-1.9-7.1,2.3-14.3,9.3-16.2,7-1.9,14.3,2.3,16.1,9.3,1.9,7-2.3,14.3-9.3,16.2-3.4.9-6.9.4-10-1.3h0Z"/>
          <path class="cls-1" d="M307,507.2l-.4.4c-3.9,3.9-10.2,3.9-14,0-3.9-3.9-3.9-10.1,0-14,3.9-3.9,10.2-3.9,14,0,1.9,1.9,2.9,4.4,2.9,7s-.9,4.8-2.5,6.6Z"/>
          <path class="cls-1" d="M462,338.2c1.9,1.9,2.9,4.4,2.9,7s-1,5.1-2.9,7c-3.9,3.9-10.2,3.9-14,0-1.9-1.9-2.9-4.4-2.9-7s1-5.1,2.9-7c1.9-1.9,4.4-2.9,7-2.9s5.1,1,7,2.9h0Z"/>
          <path class="cls-1" d="M360.3,522.6c1.8,3,2.2,6.6,1.3,10-.9,3.4-3.1,6.2-6.2,8-3.1,1.8-6.6,2.2-10,1.3-7-1.9-11.2-9.1-9.3-16.2.9-3.4,3.1-6.2,6.2-8,3-1.8,6.6-2.2,10-1.3,3.4.9,6.2,3.1,8,6.2h0Z"/>
          <path class="cls-1" d="M394.3,323.5c-1.8-3-2.2-6.6-1.3-10,.9-3.4,3.1-6.2,6.2-8,2-1.2,4.3-1.8,6.6-1.8s2.3.1,3.4.4c3.4.9,6.2,3.1,8,6.2,1.8,3,2.2,6.6,1.3,10-1.9,7-9.1,11.2-16.1,9.3-3.4-.9-6.2-3.1-8-6.2Z"/>
          <path class="cls-1" d="M414.1,515l.7.4c3.4,2.2,5.9,5.6,7,9.6,2.3,8.8-2.9,17.8-11.6,20.2-4.3,1.2-8.7.5-12.5-1.6-3.8-2.2-6.5-5.8-7.7-10-1.2-4.3-.5-8.7,1.6-12.5,2.2-3.8,5.7-6.5,10-7.7,1.4-.4,2.9-.5,4.3-.5,2.9,0,5.7.8,8.2,2.2h0Z"/>
          <path class="cls-1" d="M353.2,332.8c-8.8,2.3-17.8-2.9-20.2-11.7-2.3-8.8,2.9-17.8,11.6-20.2,1.4-.4,2.8-.5,4.2-.5,7.3,0,14,4.9,15.9,12.2,2.3,8.8-2.9,17.8-11.6,20.2Z"/>
          <path class="cls-1" d="M299.7,365.9c11.5,0,20.7-9.3,20.7-20.8s-9.3-20.8-20.7-20.8-20.7,9.3-20.7,20.8,9.3,20.8,20.7,20.8Z"/>
        </g>
        <g>
          <path class="cls-3" d="M672.7,312.6h90.3c48.8,0,81.4,28.5,81.4,72.9s-14.9,50.7-38,61.6l43.7,84.5h-52.6l-37.4-73.5h-39.9v73.5h-47.5v-219h0ZM720.3,351.6v67.2h39c22.5,0,36.7-13.1,36.7-33.5s-14.2-33.8-36.7-33.8h-39Z"/>
          <path class="cls-3" d="M856.9,451.4c0-50.1,33.2-82.6,83.6-82.6s81.7,30,82.4,77.2c0,4.7-.3,10-1.3,15h-118.2v2.2c1,22.8,15.8,36.6,38.3,36.6s30.7-7.8,34.5-22.8h44c-5.1,31.3-33.2,56.3-76.7,56.3s-86.8-32.2-86.8-81.9h0ZM978,432.3c-3.2-19.7-16.8-30.6-37.1-30.6s-33.9,11.6-36.4,30.6h73.5Z"/>
          <path class="cls-3" d="M1152.1,370.8h44.7v160.8h-39.6l-4.1-19.4c-10.5,12.5-24.7,21.3-47.9,21.3-33.6,0-64.6-16.6-64.6-73.5v-89.1h44.7v83.2c0,28.8,9.5,42.9,31.7,42.9s35.2-15.9,35.2-45.7v-80.4h0,0Z"/>
          <path class="cls-3" d="M1223.2,325.8h44.7v45h37.1v37.2h-37.1v70.4c0,11.3,4.5,15.9,15.8,15.9h23.1v37.2h-37.1c-31.1,0-46.6-15.3-46.6-46v-159.8h0Z"/>
          <path class="cls-3" d="M1314.2,451.4c0-50.1,33.2-82.6,83.7-82.6s81.7,30,82.4,77.2c0,4.7-.3,10-1.3,15h-118.2v2.2c.9,22.8,15.8,36.6,38.3,36.6s30.7-7.8,34.6-22.8h44c-5.1,31.3-33.2,56.3-76.7,56.3s-86.8-32.2-86.8-81.9ZM1435.3,432.3c-3.2-19.7-16.8-30.6-37.1-30.6s-33.9,11.6-36.4,30.6h73.5Z"/>
          <path class="cls-3" d="M1599.3,370.7v40.1h-17.7c-26.6,0-36.7,17.5-36.7,41.9v78.8h-44.7v-160.8h40.6l4.1,24.1c8.9-14.4,21.5-24.1,46.9-24.1h7.6Z"/>
          <path class="cls-3" d="M1648.9,478c1.6,14.1,13.9,23.8,35.8,23.8s30.1-6,30.1-17.2-11.1-14.1-37.4-17.5c-38-4.4-67.5-12.8-67.5-46s28.2-52.9,70-52.5c43.7,0,73.8,19.1,76.1,51.9h-42.8c-1.2-12.8-13.6-20.7-31.7-20.7s-28.8,6.3-28.8,16.6,14,13.5,37.4,16.3c37.4,3.8,68.5,12.2,68.5,48.5s-30.4,52.2-74.1,52.2-76-21-78-55.3h42.5,0Z"/>
        </g>
        <g>
          <path class="cls-2" d="M1982,374.4c0,24.4-13.4,39.3-33.5,46.3,22.6,4.3,42.4,18.9,42.4,49.7s-26.8,61-77.4,61h-77.7v-213.4h75.6c45.4,0,70.7,22,70.7,56.4ZM1862.1,410.6h50.3c27.4,0,43-12.8,43-34.5s-15.2-34.1-43-34.1h-50.3v68.6ZM1862.1,507.3h51.2c32.9,0,50.3-13.7,50.3-35.7s-18.6-37.2-50.3-37.2h-51.2v72.9Z"/>
          <path class="cls-2" d="M2037.1,375.9l3.4,23.5c7.3-11.9,19.2-23.5,47-23.5h7v24.4h-12.5c-32.6,0-41.5,27.1-41.5,51.8v79.3h-25v-155.5h21.6Z"/>
          <path class="cls-2" d="M2101.8,453.6c0-47.3,29.9-79.6,73.8-79.6s73.8,27.7,73.8,73.8-.3,7-.6,10.7h-120.7v2.1c0,29.6,19.5,50.3,49.1,50.3s38.7-10.4,44.8-28.7h25.3c-7,29.3-32.3,50.9-68.3,50.9s-77.1-32-77.1-79.6ZM2175.9,396c-22.9,0-44.5,16.5-47,41.8h93.6c-2.4-26.8-20.7-41.8-46.6-41.8Z"/>
          <path class="cls-2" d="M2336.8,374.1c39.6,0,62.5,19.8,62.5,56.1v68c0,8.2,3,10.4,10.1,10.4h7.9v22.9h-13.7c-20.4,0-27.1-8.8-28-24.1-9.1,14-25.3,25.9-52.1,25.9s-57.3-17.1-57.3-45.4,21.6-48.5,62.5-48.5h45.7v-10.7c0-20.1-14.3-32.3-38.7-32.3s-36.6,10.4-39.6,25.9h-25c3.7-30.2,28.4-48.2,65.9-48.2ZM2291.4,486.3c0,15.2,13.1,25.6,33.8,25.6,31.1,0,49.1-18,49.1-43.9v-7.6h-48.2c-22.3,0-34.8,8.2-34.8,25.9Z"/>
          <path class="cls-2" d="M2462.7,318v140.5l78-82.6h30.8l-60.7,64.3,64.9,91.2h-30.2l-51.5-73.2-31.4,32.3v40.9h-25v-213.4h25Z"/>
          <path class="cls-2" d="M2595.1,333.2c0-8.8,6.7-15.2,15.2-15.2s15.2,6.4,15.2,15.2-6.7,15.2-15.2,15.2-15.2-6.4-15.2-15.2ZM2622.8,375.9v155.5h-25v-155.5h25Z"/>
          <path class="cls-2" d="M2650.2,375.9h21.6l3.4,21c9.1-11.9,25-22.9,51.2-22.9s62.8,19.2,62.8,70.7v86.6h-25v-85.1c0-32.3-14.9-49.4-41.8-49.4s-47.3,19.5-47.3,52.4v82h-25v-155.5Z"/>
          <path class="cls-2" d="M2889.3,571.9c32.6,0,50.3-15.2,50.3-49.1v-18.3c-10.4,17.7-27.1,28.7-53.4,28.7-43,0-74.7-29-74.7-79.6s31.7-79.6,74.7-79.6,43.6,11.3,53.4,28.7l3.4-26.8h21.6v147.9c0,44.8-23.8,70.4-77.1,70.4s-67.4-17.4-71.3-49.7h25.6c4.3,17.7,21.6,27.4,47.6,27.4ZM2888.6,396.3c-30.8,0-51.5,23.5-51.5,57.3s20.7,57.3,51.5,57.3,51.2-23.5,51.2-56.7-20.7-57.9-51.2-57.9Z"/>
          <path class="cls-2" d="M3012.1,375.9l47,127.1,46.6-127.1h26.2l-58.2,155.5h-30.2l-58.2-155.5h26.8Z"/>
          <path class="cls-2" d="M3149.9,333.2c0-8.8,6.7-15.2,15.2-15.2s15.2,6.4,15.2,15.2-6.7,15.2-15.2,15.2-15.2-6.4-15.2-15.2ZM3177.7,375.9v155.5h-25v-155.5h25Z"/>
          <path class="cls-2" d="M3198.4,453.6c0-47.3,29.9-79.6,73.8-79.6s73.8,27.7,73.8,73.8-.3,7-.6,10.7h-120.7v2.1c0,29.6,19.5,50.3,49.1,50.3s38.7-10.4,44.8-28.7h25.3c-7,29.3-32.3,50.9-68.3,50.9s-77.1-32-77.1-79.6ZM3272.5,396c-22.9,0-44.5,16.5-47,41.8h93.6c-2.4-26.8-20.7-41.8-46.6-41.8Z"/>
          <path class="cls-2" d="M3375.8,375.9l38.7,126.5,40.9-126.5h23.2l38.7,126.5,40.5-126.5h25.3l-51.8,155.5h-27.4l-37.5-115.5-39,115.5h-27.4l-50.3-155.5h26.2Z"/>
          <path class="cls-2" d="M3656.9,511.9c22,0,37.5-9.5,37.5-23.8s-17.1-20.7-41.2-24.1c-33.8-4.6-61.6-11-61.6-43.3s25.9-46.6,61-46.6,61,16.8,63.4,49.1h-25.6c-1.8-15.9-16.5-27.7-37.8-27.7s-36.3,9.1-36.3,23.5,16.5,19.2,39,22c35.4,4.3,63.7,11,63.7,45.4s-27.7,47-62.2,47-68-18.9-68.6-53h25.6c.9,18.3,17.1,31.7,43,31.7Z"/>
        </g>
      </g>
    </g>
  </g>
</svg></g></g></g></g></g></g></g></svg>