<svg xmlns="http://www.w3.org/2000/svg" xmlns:xlink="http://www.w3.org/1999/xlink" id="exportSvg" width="710" height="443"><defs/><rect width="710" height="443" transform="translate(0, 0)" fill="rgb(255, 255, 255)" style="fill: rgb(255, 255, 255);"/><g><g><g id="__svelte-dw-svg" clip-path="url(#rect-mask-9pqqA_XbzhlAVnPUDzPBV)"><clipPath id="rect-mask-9pqqA_XbzhlAVnPUDzPBV"><rect x="0" y="0" width="710" height="439.765625"/></clipPath><g id="container-svg container-body-svg datawrapper-28iGD-cb4ab8-svg"><g id="container-svg container-bodyTop-svg datawrapper-28iGD-lmtz6e-svg"><g id="container-svg container-bodyCenter-svg datawrapper-28iGD-1fgvipr-svg"><g id="container-svg container-header-svg datawrapper-28iGD-1rz7hyu-svg"><text transform="translate(0, 0)"><tspan fill="rgb(64,64,64)" x="0" y="23" style="font-family: Knowledge; font-weight: 700; font-stretch: 100%; font-size: 21px;">Software companies navigate AI disruption concerns (Copy)</tspan></text></g><g id="chart-svg"><g id="svg-main-svg" transform="translate(0, 38.875)"><g id="group-svg" transform="translate(37.23438, 8)"><g id="x-grid-svg"/><g id="y-grid-svg"><g id="y-grid-lines-svg grid-y-svg datawrapper-28iGD-sfu2tk-svg"><line x1="0" x2="609.765625" y1="0" y2="0" style="fill: none; stroke-width: 1; stroke-linejoin: miter; stroke-linecap: butt; stroke: rgb(204, 204, 204);"/><line x1="0" x2="609.765625" y1="0" y2="0" transform="translate(0, 33)" style="fill: none; stroke-width: 1; stroke-linejoin: miter; stroke-linecap: butt; stroke: rgb(204, 204, 204);"/><line x1="0" x2="609.765625" y1="0" y2="0" transform="translate(0, 66)" style="fill: none; stroke-width: 1; stroke-linejoin: miter; stroke-linecap: butt; stroke: rgb(204, 204, 204);"/><line x1="0" x2="609.765625" y1="0" y2="0" transform="translate(0, 99)" style="fill: none; stroke-width: 1; stroke-linejoin: miter; stroke-linecap: butt; stroke: rgb(204, 204, 204);"/><line x1="0" x2="609.765625" y1="0" y2="0" transform="translate(0, 132)" style="fill: none; stroke-width: 1; stroke-linejoin: miter; stroke-linecap: butt; stroke: rgb(204, 204, 204);"/><line x1="0" x2="609.765625" y1="0" y2="0" transform="translate(0, 165)" style="fill: none; stroke-width: 1; stroke-linejoin: miter; stroke-linecap: butt; stroke: rgb(204, 204, 204);"/><line x1="0" x2="609.765625" y1="0" y2="0" transform="translate(0, 231)" style="fill: none; stroke-width: 1; stroke-linejoin: miter; stroke-linecap: butt; stroke: rgb(204, 204, 204);"/><line x1="0" x2="609.765625" y1="0" y2="0" transform="translate(0, 264)" style="fill: none; stroke-width: 1; stroke-linejoin: miter; stroke-linecap: butt; stroke: rgb(204, 204, 204);"/><line x1="0" x2="609.765625" y1="0" y2="0" transform="translate(0, 297)" style="fill: none; stroke-width: 1; stroke-linejoin: miter; stroke-linecap: butt; stroke: rgb(204, 204, 204);"/></g></g><g id="area-fills-svg"/><g id="lines-svg"><g id="SALESFORCE-svg"><g id="SALESFORCE-svg"><path d="M10,198L11.616,197.334L13.232,203.348L18.079,203.348L19.695,200.975L21.311,201.653L22.926,206.978L24.542,207.884L29.39,210.076L31.005,208.41L32.621,209.17L34.237,206.85L35.853,202.542L40.7,203.863L42.316,206.218L43.932,207.569L45.548,206.984L47.163,211.959L52.011,208.755L53.626,209.41L55.242,211.316L56.858,211.316L58.474,210.655L63.321,209.03L64.937,204.494L66.553,206.487L68.169,204.745L69.784,203.179L74.632,203.606L76.248,204.062L77.863,205.64L79.479,203.921L81.095,203.921L85.942,205.295L87.558,203.045L89.174,204.64L90.79,208.703L92.406,212.151L97.253,211.21L98.869,212.438L100.485,212.222L102.1,211.093L103.716,209.632L108.564,209.691L110.179,208.925L111.795,206.803L113.411,206.522L115.027,205.698L119.874,205.032L121.49,206.704L123.106,208.212L124.722,211.999L126.337,216.436L131.185,215.512L132.801,218.336L134.416,217.354L136.032,222.199L137.648,222.416L142.495,226.992L144.111,227.589L145.727,224.45L147.343,226.589L148.958,221.287L153.806,220.393L155.422,219.207L157.037,218.944L158.653,219.306L160.269,217.868L165.116,218.114L166.732,220.528L168.348,216.775L169.964,214.221L171.58,213.215L176.427,213.215L178.043,215.197L179.659,213.098L181.274,220.37L182.89,216.424L187.738,215.542L189.353,215.664L190.969,221.212L192.585,219.043L194.201,221.1L199.048,221.241L200.664,223.117L202.28,221.422L203.896,220.212L205.511,218.569L210.359,217.05L211.975,220.048L213.59,219.271L215.206,222.158L216.822,220.709L221.669,219.733L223.285,224.467L224.901,225.233L226.517,223.368L228.132,222.503L232.98,219.335L234.596,222.866L236.211,222.462L237.827,219.598L239.443,221.732L244.29,217.599L245.906,222.848L247.522,224.713L249.138,219.207L250.754,220.913L255.601,214.367L257.217,209.03L258.833,212.987L260.448,213.917L262.064,214.045L266.979,213.671L268.595,214.378L270.211,216.015L271.826,212.981L273.442,210.784L278.289,210.24L279.905,214.273L281.521,215.302L283.137,223.14L284.753,222.784L289.6,221.714L291.216,220.083L292.832,219.195L294.447,222.462L296.063,220.574L300.911,224.45L302.526,226.513L304.142,229.798L305.758,231.265L307.374,230.248L312.221,230.418L313.837,226.151L315.453,229.64L317.069,229.64L318.684,228.243L323.532,226.905L325.148,225.806L326.763,223.462L328.379,218.353L329.995,210.69L334.842,211.298L336.458,210.427L338.074,208.568L339.69,209.65L341.306,209.72L346.153,214.191L347.769,213.998L349.385,212.111L351,212.28L352.616,211.076L357.464,208.317L359.079,209.018L360.695,207.949L362.311,207.949L363.927,207.469L368.774,207.382L370.39,207.563L372.006,208.153L373.621,208.153L375.237,214.752L380.085,213.209L381.7,209.328L383.316,207.446L384.932,210.713L386.548,211.058L391.395,211.374L393.011,222.094L394.627,222.965L396.243,226.496L397.858,230.248L402.706,230.248L404.322,234.363L405.937,233.481L407.553,229.676L409.169,229.699L414.016,228.91L415.632,229.418L417.248,229.751L418.864,237.865L420.48,238.911L425.327,239.776L426.943,248.211L428.559,246.422L430.174,251.958L431.79,251.151L436.638,249.584L438.253,249.924L439.869,254.863L441.485,254.611L443.101,252.104L447.948,252.104L449.564,255.278L451.18,253.232L452.795,254.693L454.411,254.769L459.259,258.861L460.874,254.617L462.49,250.917L464.106,246.405L465.722,249.14L470.569,250.216L472.185,248.404L473.801,250.14L475.417,245.282L477.032,244.861L481.88,246.802L483.496,249.07L485.111,249.526L486.727,246.516L488.343,250.286L493.19,247.065L494.806,248.836L496.422,249.403L498.038,249.023L499.654,248.795L504.501,248.912L506.117,256.02L507.733,256.64L509.348,254.489L510.964,258.189L515.744,254.845L517.36,253.886L518.976,254.138L520.592,253.589L522.207,253.589L527.055,254.845L528.671,256.055L530.286,259.907L531.902,263.134L533.518,266.577L538.365,261.982L539.981,262.865L541.597,259.188L543.213,257.072L544.829,256.534L549.676,254.12L551.292,253.629L552.908,252.057L554.523,261.702L556.139,258.861L560.987,257.68L562.602,257.014L564.218,257.072L565.834,259.814L567.45,255.552L572.297,254.582L573.913,253.7L575.529,257.09L577.144,254.079L578.76,256.722L583.608,259.252L585.223,262.865L586.839,266.062L588.455,265.045L590.071,261.579L594.918,258.089L596.534,258.124L598.15,257.727L599.766,259.942" stroke="rgb(253,194,24)" id="SALESFORCE" style="fill: none; stroke-width: 2; stroke-linejoin: round; stroke-linecap: round; stroke: rgb(253, 194, 24);"/></g><g id="SALESFORCE-svg"><path d="M1,0A1,1,0,1,1,-1,0A1,1,0,1,1,1,0" transform="translate(10, 198) scale(3)" style="fill: rgb(253, 194, 24);"/><path d="M1,0A1,1,0,1,1,-1,0A1,1,0,1,1,1,0" transform="translate(599.76563, 259.94216) scale(3)" style="fill: rgb(253, 194, 24);"/></g></g><g id="ORACLE-svg"><g id="ORACLE-svg"><path d="M10,198L11.616,197.864L13.232,199.27L18.079,199.27L19.695,193.035L21.311,190.998L22.926,191.995L24.542,189.235L29.39,188.143L31.005,185.445L32.621,186.537L34.237,183.345L35.853,180.322L40.7,177.036L42.316,176.69L43.932,177.845L45.548,153.197L47.163,137.072L52.011,141.397L53.626,144.463L55.242,141.639L56.858,141.639L58.474,147.622L63.321,145.659L64.937,137.02L66.553,141.796L68.169,139.592L69.784,142.3L74.632,133.493L76.248,133.146L77.863,121.578L79.479,113.873L81.095,113.873L85.942,119.185L87.558,116.833L89.174,115.458L90.79,116.308L92.406,120.969L97.253,122.313L98.869,116.35L100.485,109.695L102.1,101.874L103.716,105.338L108.564,107.343L110.179,113.044L111.795,109.065L113.411,108.089L115.027,105.685L119.874,102.966L121.49,100.583L123.106,99.932L124.722,96.605L126.337,106.42L131.185,97.906L132.801,94.61L134.416,93.812L136.032,101.202L137.648,100.51L142.495,97.749L144.111,96.51L145.727,106.672L147.343,105.853L148.958,102.368L153.806,101.538L155.422,116.707L157.037,116.245L158.653,118.24L160.269,114.87L165.116,115.878L166.732,117.138L168.348,115.458L169.964,110.724L171.58,125.62L176.427,125.62L178.043,126.491L179.659,128.433L181.274,128.905L182.89,118.618L187.738,112.655L189.353,109.474L190.969,18.335L192.585,39.823L194.201,56.284L199.048,45.828L200.664,41.094L202.28,46.594L203.896,51.623L205.511,38.984L210.359,18.525L211.975,33.556L213.59,39.194L215.206,57.176L216.822,65.437L221.669,66.172L223.285,67.768L224.901,59.611L226.517,59.853L228.132,62.624L232.98,56.903L234.596,64.618L236.211,60.01L237.827,51.266L239.443,55.465L244.29,39.666L245.906,49.124L247.522,44.274L249.138,34.428L250.754,57.197L255.601,72.03L257.217,74.161L258.833,76.775L260.448,68.996L262.064,65.574L266.979,67.6L268.595,68.198L270.211,74.003L271.826,93.329L273.442,87.325L278.289,92.321L279.905,102.483L281.521,100.237L283.137,107.07L284.753,111.836L289.6,110.188L291.216,115.101L292.832,124.717L294.447,134.606L296.063,129.063L300.911,132.202L302.526,131.54L304.142,126.249L305.758,141.828L307.374,154.351L312.221,152.756L313.837,156.167L315.453,147.843L317.069,147.843L318.684,151.003L323.532,152.063L325.148,151.895L326.763,144.935L328.379,138.007L329.995,134.595L334.842,131.488L336.458,130.449L338.074,128.895L339.69,154.257L341.306,163.579L346.153,168.88L347.769,164.964L349.385,175.661L351,174.013L352.616,161.479L357.464,154.75L359.079,157.941L360.695,155.684L362.311,155.684L363.927,155.16L368.774,157.9L370.39,155.978L372.006,158.393L373.621,158.393L375.237,157.553L380.085,160.828L381.7,159.611L383.316,160.566L384.932,163.915L386.548,154.603L391.395,148.137L393.011,150.646L394.627,159.758L396.243,163.705L397.858,162.403L402.706,162.403L404.322,174.129L405.937,180.469L407.553,175.955L409.169,177.026L414.016,171.483L415.632,179.398L417.248,181.603L418.864,185.581L420.48,190.232L425.327,194.977L426.943,200.635L428.559,209.033L430.174,219.73L431.79,213.074L436.638,198.619L438.253,195.155L439.869,198.021L441.485,198.735L443.101,194.893L447.948,194.893L449.564,201.37L451.18,199.06L452.795,198.672L454.411,207.553L459.259,214.66L460.874,209.589L462.49,207.752L464.106,205.212L465.722,210.366L470.569,206.325L472.185,206.576L473.801,203.049L475.417,200.509L477.032,202.43L481.88,203.9L483.496,206.167L485.111,191.764L486.727,195.921L488.343,200.173L493.19,199.27L494.806,200.614L496.422,202.493L498.038,199.743L499.654,205.873L504.501,200.981L506.117,208.592L507.733,209.715L509.348,213.085L510.964,216.392L515.744,217.294L517.36,208.571L518.976,210.545L520.592,209.337L522.207,209.337L527.055,210.219L528.671,212.707L530.286,212.193L531.902,218.281L533.518,218.04L538.365,199.638L539.981,191.89L541.597,184.742L543.213,175.787L544.829,179.23L549.676,176.585L551.292,172.816L552.908,166.172L554.523,177.95L556.139,181.099L560.987,181.435L562.602,188.783L564.218,191.019L565.834,193.581L567.45,182.621L572.297,173.74L573.913,168.429L575.529,159.317L577.144,158.729L578.76,157.301L583.608,159.516L585.223,166.875L586.839,163.799L588.455,157.658L590.071,160.45L594.918,167.106L596.534,172.512L598.15,165.479L599.766,163.789" stroke="rgb(49,163,84)" id="ORACLE" style="fill: none; stroke-width: 2; stroke-linejoin: round; stroke-linecap: round; stroke: rgb(49, 163, 84);"/></g><g id="ORACLE-svg"><path d="M1,0A1,1,0,1,1,-1,0A1,1,0,1,1,1,0" transform="translate(10, 198) scale(3)" style="fill: rgb(49, 163, 84);"/><path d="M1,0A1,1,0,1,1,-1,0A1,1,0,1,1,1,0" transform="translate(599.76563, 163.78857) scale(3)" style="fill: rgb(49, 163, 84);"/></g></g><g id="WORKDAY-svg CLASS-svg A-svg"><g id="WORKDAY-svg CLASS-svg A-svg"><path d="M10,198L11.616,195.831L13.232,216.759L18.079,216.759L19.695,215.966L21.311,215.597L22.926,214.455L24.542,210.799L29.39,210.774L31.005,208.703L32.621,209.711L34.237,209.33L35.853,207.72L40.7,207.61L42.316,207.714L43.932,208.556L45.548,208.968L47.163,212.746L52.011,212.064L53.626,213.877L55.242,217.453L56.858,217.453L58.474,216.648L63.321,217.637L64.937,216.034L66.553,219.554L68.169,217.25L69.784,217.152L74.632,215.536L76.248,216.009L77.863,216.925L79.479,214.455L81.095,214.455L85.942,214.793L87.558,215.247L89.174,215.431L90.79,222.11L92.406,225.754L97.253,224.9L98.869,224.802L100.485,223.69L102.1,221.133L103.716,219.8L108.564,219.401L110.179,216.083L111.795,214.903L113.411,217.259L115.027,214.467L119.874,216.74L121.49,215.763L123.106,216.961L124.722,222.061L126.337,226.461L131.185,224.679L132.801,224.765L134.416,222.246L136.032,227.222L137.648,226.553L142.495,231.702L144.111,231.143L145.727,225.938L147.343,226.645L148.958,224.083L153.806,220.544L155.422,221.809L157.037,223.223L158.653,223.167L160.269,227.044L165.116,225.742L166.732,226.055L168.348,221.859L169.964,222.602L171.58,221.176L176.427,221.176L178.043,222.362L179.659,219.573L181.274,220.986L182.89,221.017L187.738,220.568L189.353,221.232L190.969,223.843L192.585,223.726L194.201,225.742L199.048,226.135L200.664,228.433L202.28,218.682L203.896,219.53L205.511,219.456L210.359,213.902L211.975,215.339L213.59,214.608L215.206,213.846L216.822,211.438L221.669,210.811L223.285,215.087L224.901,220.322L226.517,220.39L228.132,217.699L232.98,216.544L234.596,219.732L236.211,216.611L237.827,216.63L239.443,219.726L244.29,217.625L245.906,217.269L247.522,218.756L249.138,223.155L250.754,219.069L255.601,214.799L257.217,212.052L258.833,213.797L260.448,213.521L262.064,213.846L266.979,216.206L268.595,217.422L270.211,220.845L271.826,219.917L273.442,215.585L278.289,216.961L279.905,219.548L281.521,220.39L283.137,225.06L284.753,224.648L289.6,222.928L291.216,223.536L292.832,224.181L294.447,225.68L296.063,221.176L300.911,224.783L302.526,224.359L304.142,225.453L305.758,229.785L307.374,224.666L312.221,223.745L313.837,219.413L315.453,230.688L317.069,230.688L318.684,230.516L323.532,231.911L325.148,232.089L326.763,230.995L328.379,229.901L329.995,227.849L334.842,227.21L336.458,226.442L338.074,226.135L339.69,225.342L341.306,225.066L346.153,230.958L347.769,230.215L349.385,230.282L351,229.004L352.616,228.666L357.464,229.06L359.079,230.626L360.695,229.76L362.311,229.76L363.927,227.395L368.774,228.445L370.39,229.711L372.006,231.032L373.621,231.032L375.237,236.556L380.085,234.645L381.7,233.785L383.316,233.268L384.932,234.098L386.548,235.699L391.395,235.253L393.011,240.39L394.627,243.806L396.243,244.586L397.858,248.187L402.706,248.187L404.322,250.565L405.937,250.307L407.553,247.376L409.169,246.712L414.016,245.735L415.632,247.13L417.248,246.798L418.864,255.683L420.48,255.087L425.327,256.47L426.943,263.972L428.559,258.454L430.174,265.452L431.79,262.896L436.638,268.033L438.253,268.85L439.869,274.184L441.485,274.497L443.101,274.263L447.948,274.263L449.564,275.062L451.18,275.363L452.795,276.967L454.411,278.325L459.259,283.609L460.874,282.982L462.49,281.188L464.106,277.526L465.722,280.813L470.569,280.66L472.185,274.761L473.801,275.111L475.417,272.568L477.032,270.196L481.88,271.978L483.496,275.449L485.111,278.306L486.727,280.58L488.343,281.225L493.19,280.893L494.806,279.947L496.422,281.717L498.038,281.047L499.654,279.462L504.501,278.786L506.117,283.56L507.733,284.924L509.348,284.371L510.964,286.7L515.744,283.879L517.36,283.173L518.976,283.707L520.592,281.735L522.207,281.735L527.055,283.296L528.671,284.654L530.286,289.778L531.902,293.532L533.518,293.876L538.365,289.317L539.981,290.583L541.597,286.737L543.213,286.276L544.829,286.915L549.676,284.389L551.292,283.64L552.908,285.213L554.523,292.543L556.139,289.415L560.987,290.601L562.602,288.543L564.218,287.775L565.834,287.793L567.45,284.991L572.297,284.42L573.913,283.815L575.529,287.652L577.144,282.583L578.76,284.457L583.608,288.395L585.223,290.116L586.839,291.419L588.455,290.036L590.071,286.19L594.918,283.812L596.534,283.529L598.15,285.207L599.766,288.131" stroke="rgb(236,32,51)" id="WORKDAY CLASS A" style="fill: none; stroke-width: 2; stroke-linejoin: round; stroke-linecap: round; stroke: rgb(236, 32, 51);"/></g><g id="WORKDAY-svg CLASS-svg A-svg"><path d="M1,0A1,1,0,1,1,-1,0A1,1,0,1,1,1,0" transform="translate(10, 198) scale(3)" style="fill: rgb(236, 32, 51);"/><path d="M1,0A1,1,0,1,1,-1,0A1,1,0,1,1,1,0" transform="translate(599.76563, 288.13125) scale(3)" style="fill: rgb(236, 32, 51);"/></g></g><g id="INTUIT-svg"><g id="INTUIT-svg"><path d="M10,198L11.616,196.477L13.232,182.962L18.079,182.962L19.695,175.004L21.311,174.382L22.926,173.689L24.542,174.627L29.39,171.747L31.005,171.829L32.621,171.292L34.237,171.334L35.853,170.099L40.7,171.899L42.316,172.469L43.932,171.807L45.548,171.442L47.163,174.499L52.011,170.974L53.626,171.769L55.242,174.287L56.858,174.287L58.474,172.709L63.321,172.357L64.937,173.237L66.553,173.529L68.169,169.779L69.784,168.852L74.632,166.087L76.248,168.092L77.863,169.569L79.479,167.834L81.095,167.834L85.942,167.092L87.558,167.624L89.174,170.597L90.79,176.019L92.406,176.019L97.253,174.807L98.869,176.507L100.485,175.314L102.1,174.152L103.716,174.837L108.564,172.072L110.179,171.299L111.795,168.994L113.411,167.692L115.027,166.507L119.874,163.311L121.49,161.409L123.106,161.146L124.722,166.712L126.337,168.957L131.185,166.777L132.801,170.677L134.416,168.127L136.032,172.592L137.648,175.744L142.495,186.472L144.111,184.625L145.727,185.067L147.343,185.335L148.958,183.81L153.806,183.692L155.422,187.737L157.037,188.207L158.653,188.555L160.269,197.33L165.116,198.755L166.732,198.11L168.348,197.203L169.964,195.945L171.58,196.245L176.427,196.245L178.043,197.497L179.659,195.825L181.274,195.922L182.89,194.79L187.738,195.075L189.353,195.272L190.969,198.93L192.585,197.865L194.201,201.488L199.048,200.163L200.664,200.17L202.28,197.325L203.896,194.255L205.511,191.015L210.359,187.472L211.975,188.2L213.59,189.297L215.206,189.825L216.822,188.43L221.669,189.322L223.285,192.267L224.901,193.12L226.517,192.53L228.132,193.01L232.98,195.472L234.596,198.498L236.211,198.545L237.827,201.765L239.443,202.548L244.29,199.075L245.906,198.705L247.522,199.823L249.138,201.248L250.754,197.648L255.601,196.802L257.217,194.235L258.833,195.302L260.448,193.565L262.064,192.222L266.979,192.147L268.595,193.262L270.211,198.985L271.826,198.95L273.442,196.107L278.289,193.947L279.905,197.89L281.521,199.163L283.137,199.585L284.753,200.783L289.6,199.678L291.216,199.415L292.832,198.17L294.447,200.468L296.063,197.393L300.911,201.5L302.526,200.563L304.142,200.34L305.758,203.635L307.374,197.208L312.221,199.688L313.837,200.978L315.453,205.713L317.069,205.713L318.684,204.475L323.532,205.09L325.148,204.088L326.763,201.075L328.379,197.225L329.995,194.587L334.842,198.935L336.458,199.058L338.074,197.388L339.69,193.992L341.306,195.264L346.153,199.345L347.769,195.657L349.385,197.8L351,195.775L352.616,195.17L357.464,194.194L359.079,194.46L360.695,194.287L362.311,194.287L363.927,193.857L368.774,194.457L370.39,195.525L372.006,197.39L373.621,197.39L375.237,205.63L380.085,204.535L381.7,201.195L383.316,200.208L384.932,199.808L386.548,201.27L391.395,204.135L393.011,211.675L394.627,221.346L396.243,224.351L397.858,226.673L402.706,226.673L404.322,230.758L405.937,231.766L407.553,226.073L409.169,222.005L414.016,222.553L415.632,226.646L417.248,228.321L418.864,237.251L420.48,238.266L425.327,241.216L426.943,254.474L428.559,251.587L430.174,254.269L431.79,252.054L436.638,253.622L438.253,257.649L439.869,263.075L441.485,263.507L443.101,263.147L447.948,263.147L449.564,268.205L451.18,265.604L452.795,267.612L454.411,267.86L459.259,273.11L460.874,273.32L462.49,267.69L464.106,264.392L465.722,260.739L470.569,258.232L472.185,254.659L473.801,252.962L475.417,246.299L477.032,242.704L481.88,244.579L483.496,249.509L485.111,252.884L486.727,254.214L488.343,253.007L493.19,249.919L494.806,248.177L496.422,251.299L498.038,249.187L499.654,249.107L504.501,248.741L506.117,254.884L507.733,256.282L509.348,254.859L510.964,258.887L515.744,255.739L517.36,254.902L518.976,256.529L520.592,257.377L522.207,257.377L527.055,258.657L528.671,260.437L530.286,265.619L531.902,272.575L533.518,275.262L538.365,270.637L539.981,271.297L541.597,265.567L543.213,266.22L544.829,264.685L549.676,261.789L551.292,261.784L552.908,260.827L554.523,267.172L556.139,264.01L560.987,265.517L562.602,262.902L564.218,264.227L565.834,265.872L567.45,263.237L572.297,261.249L573.913,263.417L575.529,265.86L577.144,261.302L578.76,263.919L583.608,264.675L585.223,266.062L586.839,270.07L588.455,268.425L590.071,264.747L594.918,262.207L596.534,263.069L598.15,267.015L599.766,286.23" stroke="rgb(49,130,189)" id="INTUIT" style="fill: none; stroke-width: 2; stroke-linejoin: round; stroke-linecap: round; stroke: rgb(49, 130, 189);"/></g><g id="INTUIT-svg"><path d="M1,0A1,1,0,1,1,-1,0A1,1,0,1,1,1,0" transform="translate(10, 198) scale(3)" style="fill: rgb(49, 130, 189);"/><path d="M1,0A1,1,0,1,1,-1,0A1,1,0,1,1,1,0" transform="translate(599.76563, 286.23012) scale(3)" style="fill: rgb(49, 130, 189);"/></g></g></g><g id="lbl-connect-lines-svg"><path d="M599.765625,259.942155L606.765625,226.30699118039146" stroke="rgb(253,194,24)" id="SALESFORCE" style="fill: none; stroke-width: 1; stroke-linejoin: miter; stroke-linecap: butt; stroke-dasharray: 2, 2; stroke: rgb(253, 194, 24);"/><path d="M599.765625,288.13125L606.765625,297" stroke="rgb(236,32,51)" id="WORKDAY CLASS A" style="fill: none; stroke-width: 1; stroke-linejoin: miter; stroke-linecap: butt; stroke-dasharray: 2, 2; stroke: rgb(236, 32, 51);"/><path d="M599.765625,286.23012L606.765625,262.75203688241214" stroke="rgb(49,130,189)" id="INTUIT" style="fill: none; stroke-width: 1; stroke-linejoin: miter; stroke-linecap: butt; stroke-dasharray: 2, 2; stroke: rgb(49, 130, 189);"/></g><g id="x-grid-svg"><g id="x-tick-labels-svg date-axis-svg grid-x-svg datawrapper-28iGD-p0ujoi-svg svelte-qac4x9-svg" transform="translate(0, 302)"><text transform="translate(76.24765, 14) translate(-15.35157, 0) translate(15.351566314697266, 0)" style="text-anchor: middle;"><tspan fill="rgb(123, 123, 123)" style="font-family: Knowledge; font-weight: 300; font-stretch: 100%; font-size: 14px;" x="0" dominant-baseline="auto" y="0">July</tspan><tspan fill="rgb(123, 123, 123)" style="font-family: Knowledge; font-weight: 300; font-stretch: 100%; font-size: 14px;" x="0" dominant-baseline="auto" y="17">2025</tspan></text><text transform="translate(224.9009, 14) translate(-11.83593, 0) translate(11.835929870605469, 0)" style="text-anchor: middle;"><tspan fill="rgb(123, 123, 123)" style="font-family: Knowledge; font-weight: 300; font-stretch: 100%; font-size: 14px;" x="0" dominant-baseline="auto" y="0">Oct.</tspan></text><text transform="translate(373.62148, 14) translate(-15.52895, 0) translate(15.528945922851562, 0)" style="text-anchor: middle;"><tspan fill="rgb(123, 123, 123)" style="font-family: Knowledge; font-weight: 300; font-stretch: 100%; font-size: 14px;" x="0" dominant-baseline="auto" y="0">Jan.</tspan><tspan fill="rgb(123, 123, 123)" style="font-family: Knowledge; font-weight: 300; font-stretch: 100%; font-size: 14px;" x="0" dominant-baseline="auto" y="17">2026</tspan></text><text transform="translate(518.97581, 14) translate(-13.80896, 0) translate(13.8089599609375, 0)" style="text-anchor: middle;"><tspan fill="rgb(123, 123, 123)" style="font-family: Knowledge; font-weight: 300; font-stretch: 100%; font-size: 14px;" x="0" dominant-baseline="auto" y="0">April</tspan></text><g id="highlighted-ticks-svg"/></g></g><g id="y-grid-svg"><g id="y-tick-labels-svg number-axis-svg grid-y-svg datawrapper-28iGD-1lkyzg8-svg" transform="translate(-5, 0)"><text transform="translate(0, 302) translate(-24.20313, 0) translate(24.203125, 0)" style="text-anchor: end;"><tspan fill="rgb(166, 166, 166)" style="font-family: Knowledge; font-weight: 300; font-stretch: 100%; font-size: 14px;" x="0" dominant-baseline="auto" y="0">−60</tspan></text><text transform="translate(0, 269) translate(-24.125, 0) translate(24.125, 0)" style="text-anchor: end;"><tspan fill="rgb(166, 166, 166)" style="font-family: Knowledge; font-weight: 300; font-stretch: 100%; font-size: 14px;" x="0" dominant-baseline="auto" y="0">−40</tspan></text><text transform="translate(0, 236) translate(-23.84375, 0) translate(23.84375, 0)" style="text-anchor: end;"><tspan fill="rgb(166, 166, 166)" style="font-family: Knowledge; font-weight: 300; font-stretch: 100%; font-size: 14px;" x="0" dominant-baseline="auto" y="0">−20</tspan></text><text transform="translate(0, 203) translate(-8.3125, 0) translate(8.3125, 0)" style="text-anchor: end;"><tspan fill="rgb(166, 166, 166)" style="font-family: Knowledge; font-weight: 300; font-stretch: 100%; font-size: 14px;" x="0" dominant-baseline="auto" y="0">0</tspan></text><text transform="translate(0, 170) translate(-15.67188, 0) translate(15.671875, 0)" style="text-anchor: end;"><tspan fill="rgb(166, 166, 166)" style="font-family: Knowledge; font-weight: 300; font-stretch: 100%; font-size: 14px;" x="0" dominant-baseline="auto" y="0">20</tspan></text><text transform="translate(0, 137) translate(-15.95313, 0) translate(15.953125, 0)" style="text-anchor: end;"><tspan fill="rgb(166, 166, 166)" style="font-family: Knowledge; font-weight: 300; font-stretch: 100%; font-size: 14px;" x="0" dominant-baseline="auto" y="0">40</tspan></text><text transform="translate(0, 104) translate(-16.03125, 0) translate(16.03125, 0)" style="text-anchor: end;"><tspan fill="rgb(166, 166, 166)" style="font-family: Knowledge; font-weight: 300; font-stretch: 100%; font-size: 14px;" x="0" dominant-baseline="auto" y="0">60</tspan></text><text transform="translate(0, 71) translate(-16.15625, 0) translate(16.15625, 0)" style="text-anchor: end;"><tspan fill="rgb(166, 166, 166)" style="font-family: Knowledge; font-weight: 300; font-stretch: 100%; font-size: 14px;" x="0" dominant-baseline="auto" y="0">80</tspan></text><text transform="translate(0, 38) translate(-21.15625, 0) translate(21.15625, 0)" style="text-anchor: end;"><tspan fill="rgb(166, 166, 166)" style="font-family: Knowledge; font-weight: 300; font-stretch: 100%; font-size: 14px;" x="0" dominant-baseline="auto" y="0">100</tspan></text><text transform="translate(0, 5) translate(-31.23438, 0) translate(31.234375, 0)" style="text-anchor: end;"><tspan fill="rgb(166, 166, 166)" style="font-family: Knowledge; font-weight: 300; font-stretch: 100%; font-size: 14px;" x="0" dominant-baseline="auto" y="0">120%</tspan></text></g><g id="y-base-lines-svg grid-y-svg datawrapper-28iGD-1x7bfpw-svg"><line x1="609.765625" x2="0" y1="0" y2="0" transform="translate(0, 198)" style="fill: none; stroke-width: 1; stroke-linejoin: miter; stroke-linecap: square; stroke: rgb(64, 64, 64);"/></g></g><g id="value-labels-svg"/><g id="inner-value-labels-svg"><g id="SALESFORCE-svg"/><g id="ORACLE-svg"/><g id="WORKDAY-svg CLASS-svg A-svg"/><g id="INTUIT-svg"/></g></g></g><text transform="translate(647, 265.171875)" id="SALESFORCE"><tspan fill="rgb(102,102,102)" x="0" y="14" style="font-family: Knowledge; font-weight: 700; font-stretch: 100%; font-size: 14px;">Salesforce</tspan></text><text transform="translate(647, 281.171875)" id="SALESFORCE"><tspan fill="rgb(156,110,0)" x="0" y="14" style="font-family: Knowledge; font-weight: 300; font-stretch: 100%; font-size: 14px;">−37.54%</tspan></text><text transform="translate(647, 202.65625)" id="ORACLE"><tspan fill="rgb(102,102,102)" x="0" y="14" style="font-family: Knowledge; font-weight: 700; font-stretch: 100%; font-size: 14px;">Oracle</tspan></text><text transform="translate(647, 218.65625)" id="ORACLE"><tspan fill="rgb(2,138,61)" x="0" y="14" style="font-family: Knowledge; font-weight: 300; font-stretch: 100%; font-size: 14px;">20.73%</tspan></text><text transform="translate(647, 335.875)" id="WORKDAY CLASS A"><tspan fill="rgb(102,102,102)" x="0" y="14" style="font-family: Knowledge; font-weight: 700; font-stretch: 100%; font-size: 14px;">Workday</tspan></text><text transform="translate(647, 351.875)" id="WORKDAY CLASS A"><tspan fill="rgb(230,22,47)" x="0" y="14" style="font-family: Knowledge; font-weight: 300; font-stretch: 100%; font-size: 14px;">−54.63%</tspan></text><text transform="translate(647, 301.625)" id="INTUIT"><tspan fill="rgb(102,102,102)" x="0" y="14" style="font-family: Knowledge; font-weight: 700; font-stretch: 100%; font-size: 14px;">Intuit</tspan></text><text transform="translate(647, 317.625)" id="INTUIT"><tspan fill="rgb(43,126,185)" x="0" y="14" style="font-family: Knowledge; font-weight: 300; font-stretch: 100%; font-size: 14px;">−53.47%</tspan></text><g id="tooltip-layer-svg" transform="translate(0, 38.875)"><g id="group-svg" transform="translate(37.23438, 8)"/></g></g></g></g><g id="container-svg container-footer-svg datawrapper-28iGD-fzjq4h-svg"><g id="container-svg container-footerLeft-svg datawrapper-28iGD-1la8dcw-svg"><text transform="translate(0, 402.875)"><tspan fill="rgb(102,102,102)" x="0" y="13" style="font-family: Knowledge; font-weight: 300; font-stretch: 100%; font-size: 13px;">Note: Oracle also offers cloud computing services</tspan></text><text transform="translate(0, 424.765625)"><tspan fill="rgb(102,102,102)" x="0" y="13" style="font-family: Knowledge; font-weight: 300; font-stretch: 100%; font-size: 13px;">Source: LSEG Datastream</tspan><tspan fill="rgb(102,102,102)" dx="3.2" style="font-family: Knowledge; font-weight: 300; font-stretch: 100%; font-size: 13px;">|</tspan><tspan fill="rgb(102,102,102)" dx="3.2" style="font-family: Knowledge; font-weight: 300; font-stretch: 100%; font-size: 13px;">By Jaspreet Singh</tspan></text></g></g></g></g></g></g></svg>