<svg xmlns="http://www.w3.org/2000/svg" xmlns:xlink="http://www.w3.org/1999/xlink" id="exportSvg" width="600" height="393"><defs/><rect width="600" height="393" transform="translate(0, 0)" fill="rgb(255, 255, 255)" style="fill: rgb(255, 255, 255);"/><g><g><g id="__svelte-dw-svg" clip-path="url(#rect-mask-rVXwUe7eqs70ftyc0ib2l)"><clipPath id="rect-mask-rVXwUe7eqs70ftyc0ib2l"><rect x="0" y="0" width="600" height="392.75"/></clipPath><g id="container-svg container-body-svg datawrapper-pe8Ur-cb4ab8-svg"><g id="container-svg container-bodyTop-svg datawrapper-pe8Ur-lmtz6e-svg"><g id="container-svg container-bodyCenter-svg datawrapper-pe8Ur-1fgvipr-svg"><g id="container-svg container-header-svg datawrapper-pe8Ur-1rz7hyu-svg"><text transform="translate(0, 0)"><tspan fill="rgb(64,64,64)" x="0" y="20" style="font-family: Knowledge; font-weight: 700; font-stretch: 100%; font-size: 18px;">EU defence spending appears to boost GDP growth (Copy)</tspan></text></g><g id="chart-svg"><g id="group-svg" clip-path="url(#rect-mask-crvOJo7p-H3qARSb-gLYo)" transform="translate(0, 34.75)"><clipPath id="rect-mask-crvOJo7p-H3qARSb-gLYo"><rect x="0" y="0" width="600" height="322"/></clipPath><g id="group-svg" transform="translate(14.65625, 0)"><g id="grid-svg"><g id="y-grid-svg"><g id="y-grid-lines-svg grid-y-svg datawrapper-pe8Ur-sfu2tk-svg"><line x1="0" x2="585" y1="0" y2="0" transform="translate(0, 58.16097)" style="fill: none; stroke-width: 1; stroke-linejoin: miter; stroke-linecap: butt; stroke: rgb(204, 204, 204);"/><line x1="0" x2="585" y1="0" y2="0" transform="translate(0, 122.30495)" style="fill: none; stroke-width: 1; stroke-linejoin: miter; stroke-linecap: butt; stroke: rgb(204, 204, 204);"/><line x1="0" x2="585" y1="0" y2="0" transform="translate(0, 186.44892)" style="fill: none; stroke-width: 1; stroke-linejoin: miter; stroke-linecap: butt; stroke: rgb(204, 204, 204);"/><line x1="0" x2="585" y1="0" y2="0" transform="translate(0, 250.5929)" style="fill: none; stroke-width: 1; stroke-linejoin: miter; stroke-linecap: butt; stroke: rgb(204, 204, 204);"/></g></g><g id="x-grid-svg"><g id="x-grid-lines-svg grid-x-svg datawrapper-pe8Ur-sfu2tk-svg"><line x1="0" x2="0" y1="300" y2="0" transform="translate(83.62498, 0)" style="fill: none; stroke-width: 1; stroke-linejoin: miter; stroke-linecap: butt; stroke: rgb(204, 204, 204);"/><line x1="0" x2="0" y1="300" y2="0" transform="translate(175.84657, 0)" style="fill: none; stroke-width: 1; stroke-linejoin: miter; stroke-linecap: butt; stroke: rgb(204, 204, 204);"/><line x1="0" x2="0" y1="300" y2="0" transform="translate(268.06816, 0)" style="fill: none; stroke-width: 1; stroke-linejoin: miter; stroke-linecap: butt; stroke: rgb(204, 204, 204);"/><line x1="0" x2="0" y1="300" y2="0" transform="translate(360.28974, 0)" style="fill: none; stroke-width: 1; stroke-linejoin: miter; stroke-linecap: butt; stroke: rgb(204, 204, 204);"/><line x1="0" x2="0" y1="300" y2="0" transform="translate(452.51133, 0)" style="fill: none; stroke-width: 1; stroke-linejoin: miter; stroke-linecap: butt; stroke: rgb(204, 204, 204);"/><line x1="0" x2="0" y1="300" y2="0" transform="translate(544.73291, 0)" style="fill: none; stroke-width: 1; stroke-linejoin: miter; stroke-linecap: butt; stroke: rgb(204, 204, 204);"/></g></g></g><g id="dots-svg"><g id="dot-svg" transform="translate(485.92949, 66.95913)"><path d="M2.5,0A2.5,2.5,0,1,1,-2.5,0A2.5,2.5,0,1,1,2.5,0" style="fill: rgb(49, 130, 189);"/></g><g id="dot-svg" transform="translate(535.51962, 67.91954)"><path d="M2.5,0A2.5,2.5,0,1,1,-2.5,0A2.5,2.5,0,1,1,2.5,0" style="fill: rgb(49, 130, 189);"/></g><g id="dot-svg" transform="translate(536.25, 96.74759)"><path d="M2.5,0A2.5,2.5,0,1,1,-2.5,0A2.5,2.5,0,1,1,2.5,0" style="fill: rgb(49, 130, 189);"/></g><g id="dot-svg" transform="translate(495.28034, 59.33373)"><path d="M2.5,0A2.5,2.5,0,1,1,-2.5,0A2.5,2.5,0,1,1,2.5,0" style="fill: rgb(49, 130, 189);"/></g><g id="dot-svg" transform="translate(464.46823, 82.50445)"><path d="M2.5,0A2.5,2.5,0,1,1,-2.5,0A2.5,2.5,0,1,1,2.5,0" style="fill: rgb(49, 130, 189);"/></g><g id="dot-svg" transform="translate(455.75879, 113.33049)"><path d="M2.5,0A2.5,2.5,0,1,1,-2.5,0A2.5,2.5,0,1,1,2.5,0" style="fill: rgb(49, 130, 189);"/></g><g id="dot-svg" transform="translate(456.06665, 136.34059)"><path d="M2.5,0A2.5,2.5,0,1,1,-2.5,0A2.5,2.5,0,1,1,2.5,0" style="fill: rgb(49, 130, 189);"/></g><g id="dot-svg" transform="translate(415.61286, 71.87548)"><path d="M2.5,0A2.5,2.5,0,1,1,-2.5,0A2.5,2.5,0,1,1,2.5,0" style="fill: rgb(49, 130, 189);"/></g><g id="dot-svg" transform="translate(384.87518, 25)"><path d="M2.5,0A2.5,2.5,0,1,1,-2.5,0A2.5,2.5,0,1,1,2.5,0" style="fill: rgb(49, 130, 189);"/></g><g id="dot-svg" transform="translate(335.5425, 73.25417)"><path d="M2.5,0A2.5,2.5,0,1,1,-2.5,0A2.5,2.5,0,1,1,2.5,0" style="fill: rgb(49, 130, 189);"/></g><g id="dot-svg" transform="translate(335.71983, 133.3301)"><path d="M2.5,0A2.5,2.5,0,1,1,-2.5,0A2.5,2.5,0,1,1,2.5,0" style="fill: rgb(49, 130, 189);"/></g><g id="dot-svg" transform="translate(342.50238, 97.41727)"><path d="M2.5,0A2.5,2.5,0,1,1,-2.5,0A2.5,2.5,0,1,1,2.5,0" style="fill: rgb(49, 130, 189);"/></g><g id="dot-svg" transform="translate(324.74426, 55.50829)"><path d="M2.5,0A2.5,2.5,0,1,1,-2.5,0A2.5,2.5,0,1,1,2.5,0" style="fill: rgb(49, 130, 189);"/></g><g id="dot-svg" transform="translate(329.93566, 147.97453)"><path d="M2.5,0A2.5,2.5,0,1,1,-2.5,0A2.5,2.5,0,1,1,2.5,0" style="fill: rgb(49, 130, 189);"/></g><g id="dot-svg" transform="translate(336.75522, 270.30868)"><path d="M2.5,0A2.5,2.5,0,1,1,-2.5,0A2.5,2.5,0,1,1,2.5,0" style="fill: rgb(49, 130, 189);"/></g><g id="dot-svg" transform="translate(322.55019, 93.92961)"><path d="M2.5,0A2.5,2.5,0,1,1,-2.5,0A2.5,2.5,0,1,1,2.5,0" style="fill: rgb(49, 130, 189);"/></g><g id="dot-svg" transform="translate(325.56354, 155.99862)"><path d="M2.5,0A2.5,2.5,0,1,1,-2.5,0A2.5,2.5,0,1,1,2.5,0" style="fill: rgb(49, 130, 189);"/></g><g id="dot-svg" transform="translate(322.82526, 152.76498)"><path d="M2.5,0A2.5,2.5,0,1,1,-2.5,0A2.5,2.5,0,1,1,2.5,0" style="fill: rgb(49, 130, 189);"/></g><g id="dot-svg" transform="translate(317.38127, 125.85293)"><path d="M2.5,0A2.5,2.5,0,1,1,-2.5,0A2.5,2.5,0,1,1,2.5,0" style="fill: rgb(49, 130, 189);"/></g><g id="dot-svg" transform="translate(309.20417, 184.29606)"><path d="M2.5,0A2.5,2.5,0,1,1,-2.5,0A2.5,2.5,0,1,1,2.5,0" style="fill: rgb(49, 130, 189);"/></g><g id="dot-svg" transform="translate(323.707, 232.68557)"><path d="M2.5,0A2.5,2.5,0,1,1,-2.5,0A2.5,2.5,0,1,1,2.5,0" style="fill: rgb(49, 130, 189);"/></g><g id="dot-svg" transform="translate(329.41752, 224.31074)"><path d="M2.5,0A2.5,2.5,0,1,1,-2.5,0A2.5,2.5,0,1,1,2.5,0" style="fill: rgb(49, 130, 189);"/></g><g id="dot-svg" transform="translate(324.74017, 204.21552)"><path d="M2.5,0A2.5,2.5,0,1,1,-2.5,0A2.5,2.5,0,1,1,2.5,0" style="fill: rgb(49, 130, 189);"/></g><g id="dot-svg" transform="translate(311.79197, 169.56139)"><path d="M2.5,0A2.5,2.5,0,1,1,-2.5,0A2.5,2.5,0,1,1,2.5,0" style="fill: rgb(49, 130, 189);"/></g><g id="dot-svg" transform="translate(304.58916, 176.29211)"><path d="M2.5,0A2.5,2.5,0,1,1,-2.5,0A2.5,2.5,0,1,1,2.5,0" style="fill: rgb(49, 130, 189);"/></g><g id="dot-svg" transform="translate(288.41841, 167.8672)"><path d="M2.5,0A2.5,2.5,0,1,1,-2.5,0A2.5,2.5,0,1,1,2.5,0" style="fill: rgb(49, 130, 189);"/></g><g id="dot-svg" transform="translate(291.34273, 169.00118)"><path d="M2.5,0A2.5,2.5,0,1,1,-2.5,0A2.5,2.5,0,1,1,2.5,0" style="fill: rgb(49, 130, 189);"/></g><g id="dot-svg" transform="translate(273.93781, 118.12073)"><path d="M2.5,0A2.5,2.5,0,1,1,-2.5,0A2.5,2.5,0,1,1,2.5,0" style="fill: rgb(49, 130, 189);"/></g><g id="dot-svg" transform="translate(258.06706, 125.73044)"><path d="M2.5,0A2.5,2.5,0,1,1,-2.5,0A2.5,2.5,0,1,1,2.5,0" style="fill: rgb(49, 130, 189);"/></g><g id="dot-svg" transform="translate(244.78242, 144.83816)"><path d="M2.5,0A2.5,2.5,0,1,1,-2.5,0A2.5,2.5,0,1,1,2.5,0" style="fill: rgb(49, 130, 189);"/></g><g id="dot-svg" transform="translate(209.09478, 203.75819)"><path d="M2.5,0A2.5,2.5,0,1,1,-2.5,0A2.5,2.5,0,1,1,2.5,0" style="fill: rgb(49, 130, 189);"/></g><g id="dot-svg" transform="translate(190.94043, 221.67133)"><path d="M2.5,0A2.5,2.5,0,1,1,-2.5,0A2.5,2.5,0,1,1,2.5,0" style="fill: rgb(49, 130, 189);"/></g><g id="dot-svg" transform="translate(179.4027, 269.70828)"><path d="M2.5,0A2.5,2.5,0,1,1,-2.5,0A2.5,2.5,0,1,1,2.5,0" style="fill: rgb(49, 130, 189);"/></g><g id="dot-svg" transform="translate(164.70102, 163.94634)"><path d="M2.5,0A2.5,2.5,0,1,1,-2.5,0A2.5,2.5,0,1,1,2.5,0" style="fill: rgb(49, 130, 189);"/></g><g id="dot-svg" transform="translate(138.78517, 163.19774)"><path d="M2.5,0A2.5,2.5,0,1,1,-2.5,0A2.5,2.5,0,1,1,2.5,0" style="fill: rgb(49, 130, 189);"/></g><g id="dot-svg" transform="translate(133.77261, 189.13516)"><path d="M2.5,0A2.5,2.5,0,1,1,-2.5,0A2.5,2.5,0,1,1,2.5,0" style="fill: rgb(49, 130, 189);"/></g><g id="dot-svg" transform="translate(131.27863, 164.44494)"><path d="M2.5,0A2.5,2.5,0,1,1,-2.5,0A2.5,2.5,0,1,1,2.5,0" style="fill: rgb(49, 130, 189);"/></g><g id="dot-svg" transform="translate(123.52816, 154.94978)"><path d="M2.5,0A2.5,2.5,0,1,1,-2.5,0A2.5,2.5,0,1,1,2.5,0" style="fill: rgb(49, 130, 189);"/></g><g id="dot-svg" transform="translate(118.46399, 154.25037)"><path d="M2.5,0A2.5,2.5,0,1,1,-2.5,0A2.5,2.5,0,1,1,2.5,0" style="fill: rgb(49, 130, 189);"/></g><g id="dot-svg" transform="translate(111.68047, 124.40464)"><path d="M2.5,0A2.5,2.5,0,1,1,-2.5,0A2.5,2.5,0,1,1,2.5,0" style="fill: rgb(49, 130, 189);"/></g><g id="dot-svg" transform="translate(104.03832, 181.27129)"><path d="M2.5,0A2.5,2.5,0,1,1,-2.5,0A2.5,2.5,0,1,1,2.5,0" style="fill: rgb(49, 130, 189);"/></g><g id="dot-svg" transform="translate(100.66928, 215.37846)"><path d="M2.5,0A2.5,2.5,0,1,1,-2.5,0A2.5,2.5,0,1,1,2.5,0" style="fill: rgb(49, 130, 189);"/></g><g id="dot-svg" transform="translate(99.69761, 220.50023)"><path d="M2.5,0A2.5,2.5,0,1,1,-2.5,0A2.5,2.5,0,1,1,2.5,0" style="fill: rgb(49, 130, 189);"/></g><g id="dot-svg" transform="translate(95.05461, 167.18666)"><path d="M2.5,0A2.5,2.5,0,1,1,-2.5,0A2.5,2.5,0,1,1,2.5,0" style="fill: rgb(49, 130, 189);"/></g><g id="dot-svg" transform="translate(80.19078, 186.96864)"><path d="M2.5,0A2.5,2.5,0,1,1,-2.5,0A2.5,2.5,0,1,1,2.5,0" style="fill: rgb(49, 130, 189);"/></g><g id="dot-svg" transform="translate(79.4974, 136.25407)"><path d="M2.5,0A2.5,2.5,0,1,1,-2.5,0A2.5,2.5,0,1,1,2.5,0" style="fill: rgb(49, 130, 189);"/></g><g id="dot-svg" transform="translate(72.06727, 149.83443)"><path d="M2.5,0A2.5,2.5,0,1,1,-2.5,0A2.5,2.5,0,1,1,2.5,0" style="fill: rgb(49, 130, 189);"/></g><g id="dot-svg" transform="translate(75.57693, 230.60036)"><path d="M2.5,0A2.5,2.5,0,1,1,-2.5,0A2.5,2.5,0,1,1,2.5,0" style="fill: rgb(49, 130, 189);"/></g><g id="dot-svg" transform="translate(77.84948, 180.52923)"><path d="M2.5,0A2.5,2.5,0,1,1,-2.5,0A2.5,2.5,0,1,1,2.5,0" style="fill: rgb(49, 130, 189);"/></g><g id="dot-svg" transform="translate(66.31269, 187.70723)"><path d="M2.5,0A2.5,2.5,0,1,1,-2.5,0A2.5,2.5,0,1,1,2.5,0" style="fill: rgb(49, 130, 189);"/></g><g id="dot-svg" transform="translate(65.84858, 275)"><path d="M2.5,0A2.5,2.5,0,1,1,-2.5,0A2.5,2.5,0,1,1,2.5,0" style="fill: rgb(49, 130, 189);"/></g><g id="dot-svg" transform="translate(56.91699, 251.79965)"><path d="M2.5,0A2.5,2.5,0,1,1,-2.5,0A2.5,2.5,0,1,1,2.5,0" style="fill: rgb(49, 130, 189);"/></g><g id="dot-svg" transform="translate(51.34946, 198.36515)"><path d="M2.5,0A2.5,2.5,0,1,1,-2.5,0A2.5,2.5,0,1,1,2.5,0" style="fill: rgb(49, 130, 189);"/></g><g id="dot-svg" transform="translate(48.75, 174.55338)"><path d="M2.5,0A2.5,2.5,0,1,1,-2.5,0A2.5,2.5,0,1,1,2.5,0" style="fill: rgb(49, 130, 189);"/></g><g id="dot-svg" transform="translate(51.6429, 188.24692)"><path d="M2.5,0A2.5,2.5,0,1,1,-2.5,0A2.5,2.5,0,1,1,2.5,0" style="fill: rgb(49, 130, 189);"/></g><g id="dot-svg" transform="translate(52.69729, 160.93675)"><path d="M2.5,0A2.5,2.5,0,1,1,-2.5,0A2.5,2.5,0,1,1,2.5,0" style="fill: rgb(49, 130, 189);"/></g><g id="dot-svg" transform="translate(55.37224, 184.84623)"><path d="M2.5,0A2.5,2.5,0,1,1,-2.5,0A2.5,2.5,0,1,1,2.5,0" style="fill: rgb(49, 130, 189);"/></g><g id="dot-svg" transform="translate(61.74705, 190.43478)"><path d="M2.5,0A2.5,2.5,0,1,1,-2.5,0A2.5,2.5,0,1,1,2.5,0" style="fill: rgb(49, 130, 189);"/></g><g id="dot-svg" transform="translate(83.94695, 46.68653)"><path d="M2.5,0A2.5,2.5,0,1,1,-2.5,0A2.5,2.5,0,1,1,2.5,0" style="fill: rgb(49, 130, 189);"/></g><g id="dot-svg" transform="translate(91.04494, 138.4146)"><path d="M2.5,0A2.5,2.5,0,1,1,-2.5,0A2.5,2.5,0,1,1,2.5,0" style="fill: rgb(49, 130, 189);"/></g><g id="dot-svg" transform="translate(123.52709, 236.87128)"><path d="M2.5,0A2.5,2.5,0,1,1,-2.5,0A2.5,2.5,0,1,1,2.5,0" style="fill: rgb(49, 130, 189);"/></g></g></g></g><g id="front-svg" clip-path="url(#rect-mask-Lt4tZE-kl21dJmx-f9cO-)" transform="translate(0, 34.75)"><clipPath id="rect-mask-Lt4tZE-kl21dJmx-f9cO-"><rect x="0" y="0" width="600" height="322"/></clipPath><g id="group-svg" transform="translate(14.65625, 0)"><g id="grid-svg"><g id="y-grid-svg"><g id="y-tick-labels-svg number-axis-svg grid-y-svg datawrapper-pe8Ur-whcmh9-svg" transform="translate(-5, 0)"><text transform="translate(0, 255.5929) translate(-8.3125, 0) translate(8.3125, 0)" style="text-anchor: end;"><tspan fill="rgb(123, 123, 123)" style="font-family: Knowledge; font-weight: 300; font-stretch: 100%; font-size: 14px;" x="0" dominant-baseline="auto" y="0">0</tspan></text><text transform="translate(0, 191.44892) translate(-7.40625, 0) translate(7.40625, 0)" style="text-anchor: end;"><tspan fill="rgb(123, 123, 123)" style="font-family: Knowledge; font-weight: 300; font-stretch: 100%; font-size: 14px;" x="0" dominant-baseline="auto" y="0">2</tspan></text><text transform="translate(0, 127.30495) translate(-8, 0) translate(8, 0)" style="text-anchor: end;"><tspan fill="rgb(123, 123, 123)" style="font-family: Knowledge; font-weight: 300; font-stretch: 100%; font-size: 14px;" x="0" dominant-baseline="auto" y="0">4</tspan></text><text transform="translate(0, 63.16097) translate(-8, 0) translate(8, 0)" style="text-anchor: end;"><tspan fill="rgb(123, 123, 123)" style="font-family: Knowledge; font-weight: 300; font-stretch: 100%; font-size: 14px;" x="0" dominant-baseline="auto" y="0">6</tspan></text></g><g id="y-base-lines-svg grid-y-svg datawrapper-pe8Ur-1x7bfpw-svg"><line x1="585" x2="0" y1="0" y2="0" transform="translate(0, 300)" style="fill: none; stroke-width: 1; stroke-linejoin: miter; stroke-linecap: square; stroke: rgb(64, 64, 64);"/></g></g><g id="x-grid-svg"><g id="x-tick-labels-svg number-axis-svg grid-x-svg datawrapper-pe8Ur-p0ujoi-svg svelte-qac4x9-svg" transform="translate(0, 305)"><text transform="translate(83.62498, 14) translate(-7.78906, 0) translate(7.7890625, 0)" style="text-anchor: middle;"><tspan fill="rgb(123, 123, 123)" style="font-family: Knowledge; font-weight: 300; font-stretch: 100%; font-size: 14px;" x="0" dominant-baseline="auto" y="0">1.5</tspan></text><text transform="translate(175.84657, 14) translate(-3.70313, 0) translate(3.703125, 0)" style="text-anchor: middle;"><tspan fill="rgb(123, 123, 123)" style="font-family: Knowledge; font-weight: 300; font-stretch: 100%; font-size: 14px;" x="0" dominant-baseline="auto" y="0">2</tspan></text><text transform="translate(268.06816, 14) translate(-9.21094, 0) translate(9.2109375, 0)" style="text-anchor: middle;"><tspan fill="rgb(123, 123, 123)" style="font-family: Knowledge; font-weight: 300; font-stretch: 100%; font-size: 14px;" x="0" dominant-baseline="auto" y="0">2.5</tspan></text><text transform="translate(360.28974, 14) translate(-3.51563, 0) translate(3.515625, 0)" style="text-anchor: middle;"><tspan fill="rgb(123, 123, 123)" style="font-family: Knowledge; font-weight: 300; font-stretch: 100%; font-size: 14px;" x="0" dominant-baseline="auto" y="0">3</tspan></text><text transform="translate(452.51133, 14) translate(-9.02344, 0) translate(9.0234375, 0)" style="text-anchor: middle;"><tspan fill="rgb(123, 123, 123)" style="font-family: Knowledge; font-weight: 300; font-stretch: 100%; font-size: 14px;" x="0" dominant-baseline="auto" y="0">3.5</tspan></text><text transform="translate(544.73291, 14) translate(-4, 0) translate(4, 0)" style="text-anchor: middle;"><tspan fill="rgb(123, 123, 123)" style="font-family: Knowledge; font-weight: 300; font-stretch: 100%; font-size: 14px;" x="0" dominant-baseline="auto" y="0">4</tspan></text><g id="highlighted-ticks-svg"/></g><g id="x-base-lines-svg grid-x-svg datawrapper-pe8Ur-1x7bfpw-svg"><line x1="0" x2="0" y1="300" y2="0" style="fill: none; stroke-width: 1; stroke-linejoin: miter; stroke-linecap: square; stroke: rgb(64, 64, 64);"/></g></g></g><path d="M0,180.606L1,180.693L2,180.78L3,180.865L4,180.95L5,181.033L6,181.115L7,181.196L8,181.275L9,181.354L10,181.431L11,181.507L12,181.582L13,181.656L14,181.728L15,181.8L16,181.87L17,181.939L18,182.007L19,182.074L20,182.139L21,182.204L22,182.267L23,182.329L24,182.39L25,182.45L26,182.508L27,182.566L28,182.622L29,182.677L30,182.731L31,182.784L32,182.835L33,182.886L34,182.935L35,182.983L36,183.03L37,183.076L38,183.12L39,183.164L40,183.206L41,183.247L42,183.287L43,183.326L44,183.363L45,183.4L46,183.435L47,183.469L48,183.502L49,183.534L50,183.564L51,183.593L52,183.622L53,183.649L54,183.675L55,183.699L56,183.723L57,183.745L58,183.766L59,183.787L60,183.805L61,183.823L62,183.84L63,183.855L64,183.869L65,183.882L66,183.894L67,183.905L68,183.914L69,183.923L70,183.93L71,183.936L72,183.941L73,183.945L74,183.947L75,183.948L76,183.949L77,183.948L78,183.946L79,183.942L80,183.938L81,183.932L82,183.925L83,183.917L84,183.908L85,183.898L86,183.886L87,183.874L88,183.86L89,183.845L90,183.829L91,183.811L92,183.793L93,183.773L94,183.752L95,183.73L96,183.707L97,183.683L98,183.657L99,183.631L100,183.603L101,183.574L102,183.544L103,183.512L104,183.48L105,183.446L106,183.411L107,183.375L108,183.338L109,183.3L110,183.26L111,183.22L112,183.178L113,183.135L114,183.091L115,183.045L116,182.999L117,182.951L118,182.902L119,182.852L120,182.801L121,182.749L122,182.695L123,182.64L124,182.585L125,182.528L126,182.469L127,182.41L128,182.349L129,182.288L130,182.225L131,182.161L132,182.096L133,182.029L134,181.962L135,181.893L136,181.823L137,181.752L138,181.68L139,181.607L140,181.532L141,181.456L142,181.379L143,181.301L144,181.222L145,181.142L146,181.06L147,180.978L148,180.894L149,180.809L150,180.722L151,180.635L152,180.546L153,180.457L154,180.366L155,180.274L156,180.18L157,180.086L158,179.991L159,179.894L160,179.796L161,179.697L162,179.597L163,179.495L164,179.393L165,179.289L166,179.184L167,179.078L168,178.971L169,178.862L170,178.753L171,178.642L172,178.53L173,178.417L174,178.303L175,178.187L176,178.071L177,177.953L178,177.834L179,177.714L180,177.593L181,177.47L182,177.347L183,177.222L184,177.096L185,176.969L186,176.841L187,176.711L188,176.58L189,176.449L190,176.316L191,176.182L192,176.046L193,175.91L194,175.772L195,175.634L196,175.494L197,175.353L198,175.21L199,175.067L200,174.922L201,174.776L202,174.629L203,174.481L204,174.332L205,174.182L206,174.03L207,173.877L208,173.723L209,173.568L210,173.412L211,173.254L212,173.096L213,172.936L214,172.775L215,172.613L216,172.45L217,172.285L218,172.119L219,171.953L220,171.785L221,171.616L222,171.445L223,171.274L224,171.101L225,170.927L226,170.752L227,170.576L228,170.399L229,170.22L230,170.041L231,169.86L232,169.678L233,169.495L234,169.31L235,169.125L236,168.938L237,168.75L238,168.561L239,168.371L240,168.18L241,167.987L242,167.794L243,167.599L244,167.403L245,167.206L246,167.008L247,166.808L248,166.607L249,166.405L250,166.202L251,165.998L252,165.793L253,165.586L254,165.379L255,165.17L256,164.96L257,164.749L258,164.536L259,164.323L260,164.108L261,163.892L262,163.675L263,163.457L264,163.238L265,163.017L266,162.796L267,162.573L268,162.349L269,162.124L270,161.897L271,161.67L272,161.441L273,161.211L274,160.98L275,160.748L276,160.514L277,160.28L278,160.044L279,159.807L280,159.569L281,159.33L282,159.09L283,158.848L284,158.605L285,158.362L286,158.117L287,157.87L288,157.623L289,157.374L290,157.125L291,156.874L292,156.622L293,156.369L294,156.114L295,155.859L296,155.602L297,155.344L298,155.085L299,154.825L300,154.563L301,154.301L302,154.037L303,153.772L304,153.506L305,153.239L306,152.97L307,152.701L308,152.43L309,152.158L310,151.885L311,151.611L312,151.335L313,151.059L314,150.781L315,150.502L316,150.222L317,149.941L318,149.658L319,149.375L320,149.09L321,148.804L322,148.517L323,148.229L324,147.939L325,147.649L326,147.357L327,147.064L328,146.77L329,146.475L330,146.178L331,145.881L332,145.582L333,145.282L334,144.981L335,144.679L336,144.375L337,144.071L338,143.765L339,143.458L340,143.15L341,142.841L342,142.53L343,142.219L344,141.906L345,141.592L346,141.277L347,140.96L348,140.643L349,140.324L350,140.005L351,139.684L352,139.361L353,139.038L354,138.714L355,138.388L356,138.061L357,137.733L358,137.404L359,137.074L360,136.742L361,136.41L362,136.076L363,135.741L364,135.405L365,135.068L366,134.729L367,134.389L368,134.049L369,133.707L370,133.364L371,133.019L372,132.674L373,132.327L374,131.979L375,131.63L376,131.28L377,130.929L378,130.576L379,130.223L380,129.868L381,129.512L382,129.155L383,128.796L384,128.437L385,128.076L386,127.714L387,127.351L388,126.987L389,126.622L390,126.255L391,125.888L392,125.519L393,125.149L394,124.778L395,124.405L396,124.032L397,123.657L398,123.281L399,122.904L400,122.526L401,122.147L402,121.766L403,121.385L404,121.002L405,120.618L406,120.233L407,119.846L408,119.459L409,119.07L410,118.68L411,118.289L412,117.897L413,117.504L414,117.109L415,116.713L416,116.317L417,115.919L418,115.519L419,115.119L420,114.717L421,114.315L422,113.911L423,113.506L424,113.1L425,112.692L426,112.284L427,111.874L428,111.463L429,111.051L430,110.638L431,110.224L432,109.808L433,109.391L434,108.973L435,108.554L436,108.134L437,107.713L438,107.29L439,106.866L440,106.442L441,106.016L442,105.588L443,105.16L444,104.73L445,104.3L446,103.868L447,103.435L448,103L449,102.565L450,102.128L451,101.691L452,101.252L453,100.812L454,100.371L455,99.928L456,99.485L457,99.04L458,98.594L459,98.147L460,97.699L461,97.249L462,96.799L463,96.347L464,95.894L465,95.44L466,94.985L467,94.528L468,94.071L469,93.612L470,93.152L471,92.691L472,92.229L473,91.765L474,91.3L475,90.835L476,90.368L477,89.9L478,89.43L479,88.96L480,88.488L481,88.016L482,87.542L483,87.067L484,86.59L485,86.113L486,85.634L487,85.154L488,84.674L489,84.191L490,83.708L491,83.224L492,82.738L493,82.251L494,81.763L495,81.274L496,80.784L497,80.292L498,79.8L499,79.306L500,78.811L501,78.315L502,77.818L503,77.319L504,76.82L505,76.319L506,75.817L507,75.314L508,74.809L509,74.304L510,73.797L511,73.29L512,72.781L513,72.27L514,71.759L515,71.247L516,70.733L517,70.218L518,69.702L519,69.185L520,68.667L521,68.147L522,67.627L523,67.105L524,66.582L525,66.058L526,65.532L527,65.006L528,64.478L529,63.949L530,63.419L531,62.888L532,62.356L533,61.822L534,61.288L535,60.752L536,60.215L537,59.677L538,59.137L539,58.597L540,58.055L541,57.512L542,56.968L543,56.423L544,55.877L545,55.329L546,54.781L547,54.231L548,53.68L549,53.128L550,52.574L551,52.02L552,51.464L553,50.907L554,50.349L555,49.79L556,49.23L557,48.668L558,48.105L559,47.542L560,46.977L561,46.41L562,45.843L563,45.274L564,44.705L565,44.134L566,43.562L567,42.989L568,42.414L569,41.839L570,41.262L571,40.684L572,40.105L573,39.525L574,38.944L575,38.361L576,37.777L577,37.192L578,36.606L579,36.019L580,35.431L581,34.841L582,34.251L583,33.659L584,33.066L585,32.471" stroke="rgb(51,51,51)" style="fill: none; stroke-width: 1; stroke-linejoin: miter; stroke-linecap: butt; stroke: rgb(51, 51, 51);"/></g></g><g id="Defence-svg spending-svg (%-svg of-svg GDP)-svg"><text transform="translate(599.65625, 297.25)" style="text-anchor: end;"><tspan x="0" y="14" style="font-family: Knowledge; font-weight: 700; font-stretch: 100%; font-size: 14px; stroke: rgb(255, 255, 255); stroke-width: 2; stroke-linejoin: round; stroke-linecap: round;">Defence spending</tspan><tspan x="0" y="30" style="font-family: Knowledge; font-weight: 700; font-stretch: 100%; font-size: 14px; stroke: rgb(255, 255, 255); stroke-width: 2; stroke-linejoin: round; stroke-linecap: round;">(% of GDP)</tspan></text><text transform="translate(599.65625, 297.25)" style="text-anchor: end;"><tspan fill="rgb(123,123,123)" x="0" y="14" style="font-family: Knowledge; font-weight: 700; font-stretch: 100%; font-size: 14px;">Defence spending</tspan><tspan fill="rgb(123,123,123)" x="0" y="30" style="font-family: Knowledge; font-weight: 700; font-stretch: 100%; font-size: 14px;">(% of GDP)</tspan></text></g><g id="Real-svg GDP-svg growth-svg (%)-svg"><text transform="translate(20.15625, 34.75)"><tspan x="0" y="14" style="font-family: Knowledge; font-weight: 700; font-stretch: 100%; font-size: 14px; stroke: rgb(255, 255, 255); stroke-width: 2; stroke-linejoin: round; stroke-linecap: round;">Real GDP growth </tspan><tspan x="0" y="30" style="font-family: Knowledge; font-weight: 700; font-stretch: 100%; font-size: 14px; stroke: rgb(255, 255, 255); stroke-width: 2; stroke-linejoin: round; stroke-linecap: round;">(%)</tspan></text><text transform="translate(20.15625, 34.75)"><tspan fill="rgb(123,123,123)" x="0" y="14" style="font-family: Knowledge; font-weight: 700; font-stretch: 100%; font-size: 14px;">Real GDP growth </tspan><tspan fill="rgb(123,123,123)" x="0" y="30" style="font-family: Knowledge; font-weight: 700; font-stretch: 100%; font-size: 14px;">(%)</tspan></text></g></g></g></g><g id="container-svg container-footer-svg datawrapper-pe8Ur-ruz66u-svg"><g id="container-svg container-footerLeft-svg datawrapper-pe8Ur-1la8dcw-svg"><text transform="translate(0, 376.75)"><tspan fill="rgb(102,102,102)" x="0" y="14" style="font-family: Knowledge; font-weight: 300; font-stretch: 100%; font-size: 14px;">World Bank</tspan></text></g></g></g></g></g></g></svg>